<?xml version="1.0" standalone="no"?>
<!DOCTYPE svg PUBLIC "-//W3C//DTD SVG 1.1//EN" "http://www.w3.org/Graphics/SVG/1.1/DTD/svg11.dtd" >
<svg xmlns="http://www.w3.org/2000/svg">
<metadata></metadata>
<defs>
<font id="p22_bayer_universaluniversal" horiz-adv-x="1130" >
<font-face units-per-em="2048" ascent="1638" descent="-410" />
<missing-glyph horiz-adv-x="645" />
<glyph unicode="&#x28;C&#x29;" horiz-adv-x="1558" d="M63 651q0 145 57 277.5t153 228.5t228 152.5t277 56.5q146 0 278.5 -56.5t228.5 -152.5t153 -228.5t57 -277.5t-57 -277.5t-153 -228t-228.5 -152t-278.5 -56.5q-145 0 -277 56.5t-228 152t-153 228t-57 277.5zM279 651q0 -102 39.5 -194.5t106.5 -159t159.5 -106 t193.5 -39.5q136 0 251.5 66.5t183 181.5t67.5 251t-67.5 251.5t-183 183t-251.5 67.5q-135 0 -250 -67.5t-182 -183t-67 -251.5zM401 647q0 162 115.5 276.5t278.5 114.5q161 0 276 -112q-24 -28 -60.5 -65.5t-60.5 -60.5l-24 -24q-58 58 -131 58q-78 0 -132.5 -55 t-54.5 -132t54.5 -131.5t132.5 -54.5t133 55l141 -147q-116 -113 -274 -113q-163 0 -278.5 115t-115.5 276z" />
<glyph unicode="&#x28;R&#x29;" horiz-adv-x="935" d="M31 924q0 181 128 308.5t308 127.5q182 0 310 -127.5t128 -308.5q0 -182 -128.5 -310.5t-309.5 -128.5q-180 0 -308 129t-128 310zM176 924q0 -121 85.5 -207t205.5 -86q121 0 207 85.5t86 207.5t-86 207.5t-207 85.5q-120 0 -205.5 -86t-85.5 -207zM365 692v281 q0 76 47.5 119t99.5 43h88v-115l-8 -8q-64 -2 -68 -2q-24 0 -28 -27v-291h-131z" />
<glyph unicode="&#x28;TM&#x29;" horiz-adv-x="989" d="M41 1079v121h80v166h125v-166h289q67 0 114 -41q48 45 119 45q74 0 127 -51t53 -123v-282h-121v280q0 23 -17 40t-40 17q-24 0 -40.5 -16.5t-18.5 -40.5l2 -280h-125v286q-7 44 -53 47h-9q-25 0 -37 -17t-12 -40v-276h-125v278q4 37 10 53h-116v-331h-125v331h-80z" />
<glyph unicode="&#xfb01;" horiz-adv-x="940" d="M63 2v1016q0 85 31.5 154.5t80 110t101 62t101.5 21.5h178v-262l-137 -2q-85 0 -94 -60l-7 -98h560v-944h-263v678h-288v-676h-263zM610 1231q0 55 39 94t94 39q56 0 95 -39t39 -94t-39 -94t-95 -39q-55 0 -94 39t-39 94z" />
<glyph unicode="&#xfb02;" horiz-adv-x="983" d="M123 2v1018q0 85 31 154.5t79.5 110t101 62t101.5 21.5q73 0 211 -1t213 -1v-1364h-260v713h-217v-713h-260zM383 979h217v125h-129q-78 0 -88 -60v-65z" />
<glyph horiz-adv-x="2048" />
<glyph horiz-adv-x="2048" />
<glyph unicode="&#xd;" horiz-adv-x="2048" />
<glyph unicode=" "  horiz-adv-x="645" />
<glyph unicode="&#x09;" horiz-adv-x="645" />
<glyph unicode="&#xa0;" horiz-adv-x="645" />
<glyph unicode="!" horiz-adv-x="471" d="M102 133q0 55 39 94t95 39t94.5 -39t38.5 -94t-38.5 -94t-94.5 -39t-95 39t-39 94zM104 489v848h261q0 -8 -0.5 -120.5t-1.5 -265t-1 -259.5l3 -211q0 -41 -41.5 -78.5t-90.5 -37.5q-56 0 -92.5 34.5t-36.5 89.5z" />
<glyph unicode="&#x22;" horiz-adv-x="628" d="M63 1040q3 0 3 84l-3 244h209q-2 -150 -2 -248l2 -86q-6 -39 -35.5 -66.5t-68.5 -27.5q-44 0 -73.5 28.5t-31.5 71.5zM356 1040v328h207q-2 -150 -2 -248l2 -86q-5 -39 -35 -66.5t-69 -27.5q-44 0 -73.5 28.5t-29.5 71.5z" />
<glyph unicode="#" horiz-adv-x="1089" d="M84 993v258h119v115h258v-115h166v119h260v-119h114v-258h-114v-164h117v-262h-117v-116h-260v116h-166v-121h-258v121h-117v262h117v164h-119zM461 829h166v164h-166v-164z" />
<glyph unicode="$" horiz-adv-x="1011" d="M63 838q0 86 39 161.5t109 122t154 47.5h41v199h262v-199h37q80 -7 144 -91.5t66 -174.5l3 -57l-250 -2q0 7 -1.5 17t-15 27t-37.5 17l-190 2q-26 0 -45 -18.5t-19 -44.5q0 -25 19 -43.5t45 -18.5q24 0 96 -3t109 -3q121 -2 219 -101.5t98 -230.5q0 -126 -80 -220 t-202 -111v-195h-261v193h-75q-109 12 -164 79t-55 179l2 61h264q0 -5 1 -12t9 -19t23 -12h184q25 2 43 22t18 46q0 25 -17.5 43t-43.5 18h-223q-122 0 -214 95t-92 227z" />
<glyph unicode="%" horiz-adv-x="1560" d="M63 1087q0 129 91 219.5t219 90.5t217.5 -90.5t89.5 -219.5q0 -127 -90 -217t-217 -90q-128 0 -219 90t-91 217zM225 1087q0 -60 43.5 -102.5t104.5 -42.5q60 0 102.5 42.5t42.5 102.5q0 61 -42.5 104.5t-102.5 43.5q-61 0 -104.5 -43.5t-43.5 -104.5zM256 117l829 1286 l218 -141l-830 -1287zM881 279q0 127 89.5 217t217.5 90t218.5 -90t90.5 -217q0 -128 -91 -219t-218 -91t-217 91t-90 219zM1042 279q0 -61 43 -104.5t103 -43.5q61 0 104 43t43 105q0 60 -43 102.5t-104 42.5q-60 0 -103 -42.5t-43 -102.5z" />
<glyph unicode="&#x26;" horiz-adv-x="1236" d="M82 457q0 99 38 189t105 159q-102 105 -102 258q0 160 112.5 272.5t272.5 112.5q60 0 117 -15t96.5 -36t70 -42.5t45.5 -36.5l15 -15q2 -4 -82.5 -90.5t-95.5 -86.5q-57 60 -154 60q-50 0 -84.5 -35t-34.5 -84q0 -41 37 -78q2 -2 10 -9t10.5 -9t9 -7t10 -7t10.5 -5.5 t12 -4.5t12.5 -2t15.5 -1v-13q0 -13 -0.5 -33.5t-1 -44t-0.5 -51v-48.5q0 -68 2 -68q-88 -10 -137 -79.5t-49 -149.5q0 -98 68 -167t165 -69q98 0 167 69t69 167q0 86 -56.5 150.5t-140.5 78.5v258h541v-258h-141q57 -108 57 -229q0 -205 -145.5 -350.5t-350.5 -145.5 q-204 0 -348.5 145.5t-144.5 350.5z" />
<glyph unicode="'" horiz-adv-x="372" d="M82 1042q2 0 2 84l-2 244h209q-2 -150 -2 -248l2 -86q-6 -39 -36.5 -66.5t-70.5 -27.5q-43 0 -71.5 28.5t-30.5 71.5z" />
<glyph unicode="(" horiz-adv-x="1056" d="M82 635q0 146 45 282.5t127.5 247t192 193.5t246 128.5t282.5 45.5v-272q-128 0 -244.5 -50t-201 -134.5t-134 -201.5t-49.5 -245q0 -170 84 -316t229 -231.5t316 -85.5v-256q-182 0 -347.5 71t-285 191t-190 285.5t-70.5 347.5z" />
<glyph unicode=")" horiz-adv-x="1056" d="M82 -4q171 0 316 85.5t229 231.5t84 316q0 128 -49.5 245t-134 201.5t-201 134.5t-244.5 50v272q146 0 282.5 -45.5t246 -128.5t192 -193.5t127.5 -247t45 -282.5q0 -182 -70.5 -347.5t-190 -285.5t-285 -191t-347.5 -71v256z" />
<glyph unicode="*" horiz-adv-x="802" d="M63 1417l89 133l159 -104v190h160v-190l180 117l86 -136l-198 -129l190 -122l-86 -136l-172 111v-205h-160v205l-151 -98l-88 133l174 112z" />
<glyph unicode="+" horiz-adv-x="1001" d="M123 434v258h248v252h262v-252h246v-258h-246v-246h-262v246h-248z" />
<glyph unicode="," horiz-adv-x="389" d="M61 129q0 55 39 94t95 39q55 0 94 -39t39 -94t-37 -92q-11 -12 -68 -55t-109 -80l-51 -37q-2 190 -2 264z" />
<glyph unicode="-" horiz-adv-x="854" d="M82 446v263h690v-263h-690z" />
<glyph unicode="." horiz-adv-x="393" d="M63 129q0 55 39 94t95 39q55 0 94 -39t39 -94t-39 -94t-94 -39q-56 0 -95 39t-39 94z" />
<glyph unicode="/" horiz-adv-x="747" d="M0 -152l477 1780l250 -67l-477 -1780z" />
<glyph unicode="0" horiz-adv-x="1492" d="M61 682q0 140 54.5 266.5t146.5 218t219 145.5t267 54q139 0 265.5 -54t218 -145.5t146 -218t54.5 -266.5q0 -186 -91.5 -344t-249.5 -250t-343 -92q-186 0 -344.5 92t-250.5 250t-92 344zM328 678q0 -174 123 -297t297 -123q173 0 296 123.5t123 296.5q0 174 -122.5 297 t-296.5 123q-175 0 -297.5 -122.5t-122.5 -297.5z" />
<glyph unicode="1" horiz-adv-x="587" d="M164 0v1368h260v-1368h-260z" />
<glyph unicode="2" horiz-adv-x="1017" d="M82 287q0 25 7 56.5t38 90.5t84 119q42 46 113 93t130 79t115.5 81.5t79.5 106.5q6 15 6 33q0 45 -32 88.5t-80 55.5q-24 4 -33 4q-50 0 -89.5 -31t-51.5 -80l-4 -35h-283q4 70 12 103q36 143 152 232t260 89q52 0 104 -12q142 -35 234 -151.5t92 -256.5q0 -48 -12 -98 q-18 -68 -108.5 -150t-291.5 -223q-47 -33 -78 -63.5t-45 -58t-18.5 -47t-5.5 -44.5l551 2v-270h-844v272q-2 5 -2 15z" />
<glyph unicode="3" horiz-adv-x="925" d="M82 1217q5 6 15.5 15.5t44.5 34.5t71 44.5t95 35t118 15.5q160 0 272.5 -112.5t112.5 -272.5q0 -163 -102 -262q64 -64 99.5 -152t35.5 -180q0 -168 -109 -277q-120 -120 -315 -120q-94 0 -181 32.5t-149 94.5q0 6 42.5 51.5t85.5 87.5l42 43q41 -23 57 -29 q49 -24 99 -24q66 0 109.5 39.5t43.5 107.5q0 4 -1 13.5t-1 13.5q-6 46 -28 73t-64 52q-53 34 -160 34v256q67 8 103 21.5t78 50.5q36 33 36 80q0 46 -33.5 81.5t-84.5 35.5q-96 0 -156 -60q-3 0 -47 44t-87 88z" />
<glyph unicode="4" horiz-adv-x="976" d="M41 631q0 46 21 88.5t67 107.5l291 414q38 66 96.5 101.5t126.5 35.5q39 0 80 -12q70 -23 121 -87t51 -124v-1157h-260v385h-301q-3 3 -27.5 4t-58.5 7t-71 20t-71.5 52t-52.5 95q-12 37 -12 70zM315 649h326v463z" />
<glyph unicode="5" horiz-adv-x="1007" d="M82 700v668h760v-240h-529v-167h121q124 0 230.5 -57t175.5 -156q86 -130 86 -281v-10q-2 -95 -39.5 -185t-108.5 -159q-67 -67 -156.5 -104.5t-189.5 -37.5q-204 0 -348 144l188 176q71 -62 162 -62q96 0 164 70.5t68 165.5q0 97 -68.5 166t-165.5 69h-350z" />
<glyph unicode="6" horiz-adv-x="1015" d="M82 414v14q0 51 10 99t34 122.5t32 102.5l200 616h267q-160 -530 -160 -532q8 0 24 1t23 1q133 0 230.5 -56.5t144.5 -148t47 -205.5q0 -177 -124.5 -301.5t-301.5 -124.5q-173 0 -297 120t-129 292zM336 426q0 -70 50.5 -120t121.5 -50t121.5 50t50.5 120t-51 121 t-121 51t-121 -51t-51 -121z" />
<glyph unicode="7" horiz-adv-x="909" d="M82 1124v244h428q81 0 152 -27.5t118 -85.5t47 -135q0 -39 -16 -92l-342 -1028h-256l344 1051q-5 33 -25 55t-57 22z" />
<glyph unicode="8" horiz-adv-x="993" d="M82 401q0 88 31.5 171.5t91.5 146.5q-52 51 -74 112t-22 146q0 160 112.5 272.5t272.5 112.5q159 0 272 -113t113 -272q0 -162 -103 -262q64 -64 99.5 -152t35.5 -180q0 -169 -108 -277q-124 -124 -303 -124q-177 0 -301 124q-117 117 -117 295zM348 387q0 -59 43 -102 t101 -43q61 0 104 43q41 44 41 102t-41 102q-44 41 -104 41t-101 -41q-43 -43 -43 -102zM362 981q0 -49 35 -84t84 -35t84 35t35 84t-35 84t-84 35t-84 -35t-35 -84z" />
<glyph unicode="9" horiz-adv-x="1015" d="M82 946q0 177 124.5 301.5t301.5 124.5q114 0 211 -54.5t154.5 -149t60.5 -207.5v-17q0 -51 -10 -98.5t-34 -121.5t-32 -103l-201 -619h-266q160 535 160 537q-16 -2 -47 -2q-101 0 -182 32.5t-133 88.5t-79.5 130t-27.5 158zM336 946q0 -70 50.5 -120t121.5 -50 t121.5 50t50.5 120q0 72 -50.5 122t-121.5 50t-121.5 -50t-50.5 -122z" />
<glyph unicode=":" horiz-adv-x="393" d="M63 211q0 55 39 94t95 39q55 0 94 -39t39 -94t-39 -94t-94 -39q-56 0 -95 39t-39 94zM63 682q0 55 39 94t95 39q55 0 94 -38.5t39 -94.5t-39 -94.5t-94 -38.5q-56 0 -95 39t-39 94z" />
<glyph unicode=";" horiz-adv-x="393" d="M63 129q0 55 39 94t95 39q55 0 94 -39t39 -94t-37 -92q-11 -12 -68 -55t-108 -80l-51 -37q-3 190 -3 264zM63 500q0 55 39 94t95 39q55 0 94 -38.5t39 -94.5q0 -54 -39 -93.5t-94 -39.5t-94.5 39.5t-39.5 93.5z" />
<glyph unicode="&#x3c;" horiz-adv-x="1095" d="M61 469q0 75 41 138t107 89q75 30 275.5 95.5t363.5 116.5l164 50v-276l-682 -211l684 -211v-274l-740 233q-97 20 -155 88t-58 162z" />
<glyph unicode="=" horiz-adv-x="835" d="M82 686v258h672v-258h-672zM84 219v260h670v-260h-670z" />
<glyph unicode="&#x3e;" horiz-adv-x="1095" d="M82 680v274l739 -235q97 -19 155 -86.5t58 -161.5q0 -77 -39.5 -140t-105.5 -89q-76 -30 -277 -95.5t-364 -116.5l-164 -50v276l682 213z" />
<glyph unicode="?" horiz-adv-x="985" d="M63 985q0 30 9 62q36 144 152.5 233.5t260.5 89.5q51 0 103 -12q143 -37 237.5 -154t94.5 -256q0 -42 -13 -96q-15 -56 -76 -118t-188 -154q-12 -10 -25 -31q-6 -12 -9.5 -24.5t-4.5 -19.5v-7q0 -56 -39 -94.5t-94 -38.5t-93 39t-40 98q0 45 24.5 110t59.5 93 q21 17 59.5 44.5t59 43.5t45.5 47.5t41 70.5q6 15 6 33q0 43 -32.5 86t-80.5 55q-30 5 -37 5q-49 0 -89.5 -30.5t-47.5 -78.5q-4 -28 -4 -37q0 -22 7 -40t14.5 -27t23.5 -25l-229 -133q-95 146 -95 266zM344 131q0 55 38.5 94t92.5 39q55 0 94 -39t39 -94t-39 -94t-94 -39 q-54 0 -92.5 39t-38.5 94z" />
<glyph unicode="@" horiz-adv-x="1593" d="M82 651q0 146 56.5 278t152.5 228t228 152.5t278 56.5t278 -56.5t227.5 -152.5t152 -228t56.5 -278q0 -93 -20.5 -180t-40.5 -129.5t-31 -52.5l-440 -2q-18 0 -18 30v97q-39 -32 -128.5 -77.5t-123.5 -45.5q-5 0 -21 -1t-26 -1q-89 0 -160 59q-55 44 -78 116.5t-23 215.5 q0 158 112 267.5t269 109.5q148 0 257.5 -97t119.5 -239q2 -31 2 -86q0 -27 -1 -76t-1 -70h111q26 74 26 162q0 136 -66.5 251.5t-181.5 183t-251 67.5t-251 -67.5t-182 -183t-67 -251.5t67 -251t182 -181.5t251 -66.5q49 0 110 17t97 33l36 17l158 -162q-60 -44 -167 -82 t-234 -38q-146 0 -278 56.5t-228 152t-152.5 227.5t-56.5 278zM602 674q0 -135 10 -160q4 -12 20 -25.5t38 -13.5q58 4 190 103q66 49 103 102l-2 31q-12 62 -62.5 103.5t-116.5 41.5q-74 0 -127 -53.5t-53 -128.5z" />
<glyph unicode="A" d="M82 487q0 96 38 183.5t102 150t152 99t185 36.5q182 0 315.5 -119t153.5 -298v-539h-250v156q-47 -40 -158.5 -97t-154.5 -57q-7 0 -27 -1t-32 -1q-107 0 -199 74q-68 56 -96.5 146t-28.5 267zM334 481q0 -168 12 -198q6 -17 26 -33.5t46 -16.5q31 0 94.5 33t142.5 92 q68 53 127 129l-4 39q-15 77 -76.5 129t-142.5 52q-94 0 -159.5 -66t-65.5 -160z" />
<glyph unicode="B" horiz-adv-x="1148" d="M102 461v907h260v-469q104 55 224 55q131 0 241.5 -64.5t175 -175t64.5 -241.5t-64.5 -242t-175 -176t-241.5 -65q-126 0 -237.5 63t-179 172t-67.5 236zM356 473q0 -95 67.5 -162t162.5 -67q94 0 160.5 67t66.5 162q0 94 -66.5 160.5t-160.5 66.5q-95 0 -162.5 -66.5 t-67.5 -160.5z" />
<glyph unicode="C" horiz-adv-x="985" d="M82 469q0 131 64.5 242t175 176t241.5 65q98 0 186 -37.5t154 -103.5q-29 -35 -73.5 -80.5t-74.5 -73.5l-30 -28q-69 69 -162 69q-95 0 -161 -67t-66 -162q0 -94 66 -160.5t161 -66.5q98 0 166 65l130 -130q43 -46 42 -50q-142 -139 -338 -139q-199 0 -340 141.5 t-141 339.5z" />
<glyph unicode="D" horiz-adv-x="1148" d="M82 473q0 199 141 340t340 141q118 0 225 -55v469h259v-911q0 -127 -66 -235t-177.5 -170t-240.5 -62q-131 0 -241.5 65t-175 176t-64.5 242zM336 473q0 -95 66.5 -162t160.5 -67q95 0 162.5 67t67.5 162q0 94 -67.5 160.5t-162.5 66.5q-94 0 -160.5 -66.5t-66.5 -160.5z " />
<glyph unicode="E" horiz-adv-x="1110" d="M82 471q0 131 64.5 242t175 176t241.5 65q141 0 243.5 -63.5t158.5 -169.5q63 -118 63 -272q0 -49 -2 -74l-690 -2q22 -66 86 -111t139 -45q97 0 178 74l162 -162q-142 -139 -338 -139q-199 0 -340 141.5t-141 339.5zM336 578h450q-29 63 -90.5 101t-134.5 38 q-72 0 -133 -38t-92 -101z" />
<glyph unicode="F" horiz-adv-x="702" d="M123 0v1020q0 85 31 154t79.5 110t101.5 62.5t101 21.5h180v-264h-145q-78 0 -88 -62v-71h238v-264h-238v-707h-260z" />
<glyph unicode="G" horiz-adv-x="1153" d="M82 475q0 132 65 244t176.5 177t243.5 65q195 0 340 -142l-184 -174q-66 60 -156 60q-95 0 -163 -67.5t-68 -162.5t68 -162t163 -67t162.5 67t67.5 162h254v-885h-260v455q-107 -55 -224 -55q-132 0 -243.5 65t-176.5 176.5t-65 243.5z" />
<glyph unicode="H" horiz-adv-x="1171" d="M123 0v1368h258v-473q105 57 227 57q131 0 242 -64.5t175.5 -175t64.5 -241.5v-471h-254q0 81 1 238t1 233q0 95 -67.5 162t-162.5 67q-87 0 -151.5 -57.5t-75.5 -144.5v-498h-258z" />
<glyph unicode="I" horiz-adv-x="471" d="M102 1192q0 55 39 94t95 39t94.5 -38.5t38.5 -94.5t-38.5 -94.5t-94.5 -38.5t-95 39t-39 94zM106 0v946h261v-946h-261z" />
<glyph unicode="J" horiz-adv-x="471" d="M102 1192q0 55 39 94t95 39t94.5 -38.5t38.5 -94.5t-38.5 -94.5t-94.5 -38.5t-95 39t-39 94zM106 -408v1354h261v-1354h-261z" />
<glyph unicode="K" horiz-adv-x="942" d="M102 0v944h258l2 -346h35q80 0 139 59t68 142v145h254v-123q0 -103 -41.5 -193.5t-114.5 -156.5q73 -67 114.5 -159t41.5 -195q0 -20 1 -60t1 -57h-254v117q0 91 -61.5 159t-149.5 68h-35v-344h-258z" />
<glyph unicode="L" horiz-adv-x="505" d="M123 0v1370h260v-1370h-260z" />
<glyph unicode="M" horiz-adv-x="1445" d="M102 0v582q0 152 109.5 258t263.5 106q141 0 242 -88q109 94 250 94q154 0 265 -107t111 -257v-588h-256q1 389 3 584q0 49 -34.5 83.5t-84.5 34.5q-51 0 -86 -34t-35 -84v-584h-256q-2 264 -2 442q0 156 2 156q-8 44 -40 72t-77 28q-49 0 -83 -35t-36 -85l2 -578h-258z " />
<glyph unicode="N" horiz-adv-x="1179" d="M102 0v475q0 98 39 187t105 153.5t156 102.5t188 38q132 0 244 -65.5t177.5 -177.5t65.5 -244v-469h-254q-2 150 -2 469q0 97 -67 164t-164 67q-88 0 -153.5 -58.5t-74.5 -145.5l-2 -496h-258z" />
<glyph unicode="O" horiz-adv-x="1126" d="M82 471q0 131 64.5 242t175 176t241.5 65t241.5 -65t175 -176t64.5 -242q0 -198 -141 -339.5t-340 -141.5t-340 141.5t-141 339.5zM336 471q0 -94 66 -160.5t161 -66.5t162.5 66.5t67.5 160.5q0 95 -67.5 162t-162.5 67t-161 -67t-66 -162z" />
<glyph unicode="P" horiz-adv-x="1148" d="M102 -410v902q0 126 66 233.5t177.5 169t240.5 61.5q131 0 241.5 -64.5t175 -175t64.5 -241.5t-64.5 -242t-175 -176t-241.5 -65q-119 0 -226 55v-457h-258zM356 475q0 -95 67.5 -162t162.5 -67q94 0 160.5 67t66.5 162q0 94 -66.5 160.5t-160.5 66.5q-95 0 -162.5 -66.5 t-67.5 -160.5z" />
<glyph unicode="Q" horiz-adv-x="1148" d="M82 475q0 199 141 340t340 141q129 0 240.5 -61.5t177.5 -169t66 -233.5v-902h-261l2 457q-107 -55 -225 -55q-131 0 -241.5 65t-175 176t-64.5 242zM336 475q0 -95 66.5 -162t160.5 -67q95 0 162.5 67t67.5 162q0 94 -67.5 160.5t-162.5 66.5q-94 0 -160.5 -66.5 t-66.5 -160.5z" />
<glyph unicode="R" horiz-adv-x="649" d="M102 0v604q0 83 30.5 150.5t78 107.5t99 61t98.5 21h180v-239h-150q-37 0 -57 -22.5t-25 -55.5v-627h-254z" />
<glyph unicode="S" horiz-adv-x="966" d="M100 649q0 119 78 205.5t195 95.5h309q72 -6 130.5 -80.5t61.5 -156.5l3 -51l-228 -3q0 2 -0.5 6t-3 14t-7 17.5t-14.5 14t-24 6.5h-178q-23 0 -39 -17t-16 -41t16.5 -44.5t38.5 -20.5q106 -4 190 -4q112 -2 201.5 -86.5t89.5 -202.5q0 -119 -78.5 -206.5t-195.5 -96.5 h-289q-199 24 -199 229v58l240 -2q0 -5 1 -11.5t9.5 -18t24.5 -11.5q164 -2 168 -2q22 0 39.5 21.5t17.5 45.5t-17 42t-40 18h-207q-111 0 -194 81.5t-83 200.5z" />
<glyph unicode="T" horiz-adv-x="720" d="M59 690v256h166v342h260v-340h172v-258h-174v-692h-258v692h-166z" />
<glyph unicode="U" horiz-adv-x="1167" d="M102 469v475h252q2 -328 2 -475q0 -95 67 -162t161 -67q88 0 153 58t74 144l2 502h252v-481q-1 -97 -39.5 -184.5t-102.5 -151.5t-153 -101.5t-186 -37.5q-131 0 -242 64.5t-175.5 175t-64.5 241.5z" />
<glyph unicode="V" horiz-adv-x="1056" d="M41 944h276l213 -684l209 684h277l-236 -739q-19 -97 -86.5 -155t-161.5 -58q-77 0 -139 40t-90 107q-30 75 -95.5 276t-115.5 365z" />
<glyph unicode="W" horiz-adv-x="1445" d="M102 358v586h254v-582q0 -49 34.5 -83.5t84.5 -34.5q51 0 86 34t35 84v582h254v-596q4 -43 38.5 -71.5t80.5 -28.5q49 0 82.5 35t33.5 86v577h258v-581q0 -152 -109 -259.5t-263 -107.5q-136 0 -244 90q-105 -94 -248 -94q-154 0 -265.5 107t-111.5 257z" />
<glyph unicode="X" horiz-adv-x="1105" d="M82 -4v254h117q92 0 160.5 61t68.5 148v24q0 79 -60.5 138.5t-142.5 70.5h-141v254h121q101 -1 192 -42t156 -113q68 72 160.5 113.5t195.5 41.5h115v-254h-115q-93 0 -161 -61.5t-68 -149.5v-22q0 -80 59 -139t144 -68h141v-256q-119 2 -121 2q-100 0 -191 41.5 t-159 114.5q-66 -73 -158 -114.5t-196 -41.5z" />
<glyph unicode="Y" horiz-adv-x="1193" d="M102 479v465h252q2 -311 2 -465q0 -95 66.5 -162t161.5 -67q87 0 151.5 58t75.5 145l-2 491h262v-1356h-260v467q-105 -57 -227 -57q-131 0 -242 64.5t-175.5 175t-64.5 241.5z" />
<glyph unicode="Z" horiz-adv-x="1116" d="M82 231q0 65 28 120.5t78 82.5q2 0 482 236h-582v260h739q87 -17 145 -86t58 -158q0 -153 -186 -237l-457 -203h647v-260h-708q-101 0 -172.5 72t-71.5 173z" />
<glyph unicode="[" horiz-adv-x="612" d="M63 -10v1306q0 83 30.5 150.5t78.5 107.5t99.5 61t99.5 21h174v-239h-146q-36 0 -58 -23.5t-24 -54.5q-2 -113 -2 -338q0 -170 2 -508.5t2 -507.5q3 -32 23.5 -54t56.5 -22h150v-239h-178q-48 0 -99.5 21t-99.5 61t-78.5 107.5t-30.5 150.5z" />
<glyph unicode="\" horiz-adv-x="798" d="M63 1573l248 69l424 -1579l-256 -59z" />
<glyph unicode="]" horiz-adv-x="612" d="M63 -111h150q36 0 58 22.5t24 53.5v1354q-5 33 -25 55.5t-57 22.5h-147v239h178q47 0 98.5 -21t98.5 -61t77.5 -107.5t30.5 -150.5v-1306q0 -83 -30.5 -150.5t-78 -107.5t-99 -61t-99.5 -21h-179v239z" />
<glyph unicode="^" horiz-adv-x="1105" d="M63 627l263 225q108 94 235 94q67 0 125 -24t96 -62l260 -258l-182 -160l-233 234q-26 26 -58 26q-26 0 -53 -20l-278 -246z" />
<glyph unicode="_" horiz-adv-x="1499" d="M63 -16q0 16 19 16h1335q19 0 19 -16v-224q0 -7 -5.5 -12.5t-13.5 -5.5h-1335q-8 0 -13.5 5.5t-5.5 12.5v224z" />
<glyph unicode="`" horiz-adv-x="604" d="M63 1319l183 182l295 -293l-185 -186z" />
<glyph unicode="a" d="M82 487q0 96 38 183.5t102 150t152 99t185 36.5q182 0 315.5 -119t153.5 -298v-539h-250v156q-47 -40 -158.5 -97t-154.5 -57q-7 0 -27 -1t-32 -1q-107 0 -199 74q-68 56 -96.5 146t-28.5 267zM334 481q0 -168 12 -198q6 -17 26 -33.5t46 -16.5q31 0 94.5 33t142.5 92 q68 53 127 129l-4 39q-15 77 -76.5 129t-142.5 52q-94 0 -159.5 -66t-65.5 -160z" />
<glyph unicode="b" horiz-adv-x="1148" d="M102 461v907h260v-469q104 55 224 55q131 0 241.5 -64.5t175 -175t64.5 -241.5t-64.5 -242t-175 -176t-241.5 -65q-126 0 -237.5 63t-179 172t-67.5 236zM356 473q0 -95 67.5 -162t162.5 -67q94 0 160.5 67t66.5 162q0 94 -66.5 160.5t-160.5 66.5q-95 0 -162.5 -66.5 t-67.5 -160.5z" />
<glyph unicode="c" horiz-adv-x="985" d="M82 469q0 131 64.5 242t175 176t241.5 65q98 0 186 -37.5t154 -103.5q-29 -35 -73.5 -80.5t-74.5 -73.5l-30 -28q-69 69 -162 69q-95 0 -161 -67t-66 -162q0 -94 66 -160.5t161 -66.5q98 0 166 65l130 -130q43 -46 42 -50q-142 -139 -338 -139q-199 0 -340 141.5 t-141 339.5z" />
<glyph unicode="d" horiz-adv-x="1148" d="M82 473q0 199 141 340t340 141q118 0 225 -55v469h259v-911q0 -127 -66 -235t-177.5 -170t-240.5 -62q-131 0 -241.5 65t-175 176t-64.5 242zM336 473q0 -95 66.5 -162t160.5 -67q95 0 162.5 67t67.5 162q0 94 -67.5 160.5t-162.5 66.5q-94 0 -160.5 -66.5t-66.5 -160.5z " />
<glyph unicode="e" horiz-adv-x="1110" d="M82 471q0 131 64.5 242t175 176t241.5 65q141 0 243.5 -63.5t158.5 -169.5q63 -118 63 -272q0 -49 -2 -74l-690 -2q22 -66 86 -111t139 -45q97 0 178 74l162 -162q-142 -139 -338 -139q-199 0 -340 141.5t-141 339.5zM336 578h450q-29 63 -90.5 101t-134.5 38 q-72 0 -133 -38t-92 -101z" />
<glyph unicode="f" horiz-adv-x="702" d="M123 0v1020q0 85 31 154t79.5 110t101.5 62.5t101 21.5h180v-264h-145q-78 0 -88 -62v-71h238v-264h-238v-707h-260z" />
<glyph unicode="g" horiz-adv-x="1153" d="M82 475q0 132 65 244t176.5 177t243.5 65q195 0 340 -142l-184 -174q-66 60 -156 60q-95 0 -163 -67.5t-68 -162.5t68 -162t163 -67t162.5 67t67.5 162h254v-885h-260v455q-107 -55 -224 -55q-132 0 -243.5 65t-176.5 176.5t-65 243.5z" />
<glyph unicode="h" horiz-adv-x="1171" d="M123 0v1368h258v-473q105 57 227 57q131 0 242 -64.5t175.5 -175t64.5 -241.5v-471h-254q0 81 1 238t1 233q0 95 -67.5 162t-162.5 67q-87 0 -151.5 -57.5t-75.5 -144.5v-498h-258z" />
<glyph unicode="i" horiz-adv-x="471" d="M102 1192q0 55 39 94t95 39t94.5 -38.5t38.5 -94.5t-38.5 -94.5t-94.5 -38.5t-95 39t-39 94zM106 0v946h261v-946h-261z" />
<glyph unicode="j" horiz-adv-x="471" d="M102 1192q0 55 39 94t95 39t94.5 -38.5t38.5 -94.5t-38.5 -94.5t-94.5 -38.5t-95 39t-39 94zM106 -408v1354h261v-1354h-261z" />
<glyph unicode="k" horiz-adv-x="942" d="M102 0v944h258l2 -346h35q80 0 139 59t68 142v145h254v-123q0 -103 -41.5 -193.5t-114.5 -156.5q73 -67 114.5 -159t41.5 -195q0 -20 1 -60t1 -57h-254v117q0 91 -61.5 159t-149.5 68h-35v-344h-258z" />
<glyph unicode="l" horiz-adv-x="505" d="M123 0v1370h260v-1370h-260z" />
<glyph unicode="m" horiz-adv-x="1445" d="M102 0v582q0 152 109.5 258t263.5 106q141 0 242 -88q109 94 250 94q154 0 265 -107t111 -257v-588h-256q1 389 3 584q0 49 -34.5 83.5t-84.5 34.5q-51 0 -86 -34t-35 -84v-584h-256q-2 264 -2 442q0 156 2 156q-8 44 -40 72t-77 28q-49 0 -83 -35t-36 -85l2 -578h-258z " />
<glyph unicode="n" horiz-adv-x="1179" d="M102 0v475q0 98 39 187t105 153.5t156 102.5t188 38q132 0 244 -65.5t177.5 -177.5t65.5 -244v-469h-254q-2 150 -2 469q0 97 -67 164t-164 67q-88 0 -153.5 -58.5t-74.5 -145.5l-2 -496h-258z" />
<glyph unicode="o" horiz-adv-x="1126" d="M82 471q0 131 64.5 242t175 176t241.5 65t241.5 -65t175 -176t64.5 -242q0 -198 -141 -339.5t-340 -141.5t-340 141.5t-141 339.5zM336 471q0 -94 66 -160.5t161 -66.5t162.5 66.5t67.5 160.5q0 95 -67.5 162t-162.5 67t-161 -67t-66 -162z" />
<glyph unicode="p" horiz-adv-x="1148" d="M102 -410v902q0 126 66 233.5t177.5 169t240.5 61.5q131 0 241.5 -64.5t175 -175t64.5 -241.5t-64.5 -242t-175 -176t-241.5 -65q-119 0 -226 55v-457h-258zM356 475q0 -95 67.5 -162t162.5 -67q94 0 160.5 67t66.5 162q0 94 -66.5 160.5t-160.5 66.5q-95 0 -162.5 -66.5 t-67.5 -160.5z" />
<glyph unicode="q" horiz-adv-x="1148" d="M82 475q0 199 141 340t340 141q129 0 240.5 -61.5t177.5 -169t66 -233.5v-902h-261l2 457q-107 -55 -225 -55q-131 0 -241.5 65t-175 176t-64.5 242zM336 475q0 -95 66.5 -162t160.5 -67q95 0 162.5 67t67.5 162q0 94 -67.5 160.5t-162.5 66.5q-94 0 -160.5 -66.5 t-66.5 -160.5z" />
<glyph unicode="r" horiz-adv-x="649" d="M102 0v604q0 83 30.5 150.5t78 107.5t99 61t98.5 21h180v-239h-150q-37 0 -57 -22.5t-25 -55.5v-627h-254z" />
<glyph unicode="s" horiz-adv-x="966" d="M86 649q0 119 77.5 205.5t194.5 95.5h310q72 -6 130.5 -80.5t61.5 -156.5l2 -51l-227 -3q0 2 -0.5 6t-3 14t-7 17.5t-14.5 14t-24 6.5h-178q-23 0 -39.5 -17.5t-16.5 -40.5q0 -24 16.5 -44.5t39.5 -20.5q106 -4 190 -4q112 -2 201.5 -86.5t89.5 -202.5q0 -119 -79 -206.5 t-196 -96.5h-288q-199 24 -199 229v58l240 -2q0 -5 0.5 -11.5t9 -18t24.5 -11.5q164 -2 168 -2q23 0 40.5 21.5t17.5 45.5q0 23 -17.5 41.5t-40.5 18.5h-207q-111 0 -193.5 81.5t-82.5 200.5z" />
<glyph unicode="t" horiz-adv-x="720" d="M59 690v256h166v342h260v-340h172v-258h-174v-692h-258v692h-166z" />
<glyph unicode="u" horiz-adv-x="1167" d="M102 469v475h252q2 -328 2 -475q0 -95 67 -162t161 -67q88 0 153 58t74 144l2 502h252v-481q-1 -97 -39.5 -184.5t-102.5 -151.5t-153 -101.5t-186 -37.5q-131 0 -242 64.5t-175.5 175t-64.5 241.5z" />
<glyph unicode="v" horiz-adv-x="1056" d="M41 944h276l213 -684l209 684h277l-236 -739q-19 -97 -86.5 -155t-161.5 -58q-77 0 -139 40t-90 107q-30 75 -95.5 276t-115.5 365z" />
<glyph unicode="w" horiz-adv-x="1445" d="M102 358v586h254v-582q0 -49 34.5 -83.5t84.5 -34.5q51 0 86 34t35 84v582h254v-596q4 -43 38.5 -71.5t80.5 -28.5q49 0 82.5 35t33.5 86v577h258v-581q0 -152 -109 -259.5t-263 -107.5q-136 0 -244 90q-105 -94 -248 -94q-154 0 -265.5 107t-111.5 257z" />
<glyph unicode="x" horiz-adv-x="1105" d="M82 -4v254h117q92 0 160.5 61t68.5 148v24q0 79 -60.5 138.5t-142.5 70.5h-141v254h121q101 -1 192 -42t156 -113q68 72 160.5 113.5t195.5 41.5h115v-254h-115q-93 0 -161 -61.5t-68 -149.5v-22q0 -80 59 -139t144 -68h141v-256q-119 2 -121 2q-100 0 -191 41.5 t-159 114.5q-66 -73 -158 -114.5t-196 -41.5z" />
<glyph unicode="y" horiz-adv-x="1193" d="M102 479v465h252q2 -311 2 -465q0 -95 66.5 -162t161.5 -67q87 0 151.5 58t75.5 145l-2 491h262v-1356h-260v467q-105 -57 -227 -57q-131 0 -242 64.5t-175.5 175t-64.5 241.5z" />
<glyph unicode="z" horiz-adv-x="1116" d="M82 246q0 65 28 120.5t78 82.5q2 -1 482 235h-582v260h739q87 -17 145 -86t58 -158q0 -153 -186 -237l-457 -203h647v-260h-708q-101 0 -172.5 72.5t-71.5 173.5z" />
<glyph unicode="{" horiz-adv-x="843" d="M63 629q0 128 63 237.5t169 173.5v252q0 83 30.5 150.5t77.5 107.5t98.5 61t98.5 21h180v-239h-149q-37 0 -58 -22.5t-24 -55.5l-4 -465q-95 0 -161.5 -63.5t-66.5 -157.5q0 -93 67 -158t161 -65l4 -445q12 -76 82 -76h149v-239h-180q-47 0 -98.5 21t-98.5 61 t-77.5 107.5t-30.5 150.5v231q-106 66 -169 175t-63 237z" />
<glyph unicode="|" horiz-adv-x="546" d="M143 -406v2044h260v-2044h-260z" />
<glyph unicode="}" horiz-adv-x="843" d="M63 -115h150q70 0 82 76l2 445q95 0 162 64.5t67 158.5t-66.5 157.5t-162.5 63.5l-2 465q-5 33 -25 55.5t-57 22.5l-150 -2v241h181q47 0 98.5 -21t98.5 -61t77.5 -107.5t30.5 -150.5v-252q105 -64 167 -173.5t62 -237.5t-62 -237t-167 -175v-231q0 -83 -30.5 -150.5 t-77.5 -107.5t-98.5 -61t-98.5 -21l-181 -2v241z" />
<glyph unicode="~" horiz-adv-x="1099" d="M63 872l109 103q103 98 234 98q66 0 124.5 -25.5t94.5 -64.5q29 -29 55 -29q22 0 57 23l123 115l176 -185l-108 -100q-103 -98 -234 -98q-67 0 -127 26t-96 64q-28 28 -55 28q-25 0 -54 -22l-126 -115z" />
<glyph unicode="&#xa1;" horiz-adv-x="393" d="M25 1198q0 55 39.5 94t93.5 39q56 0 94.5 -38.5t38.5 -94.5t-38.5 -94.5t-94.5 -38.5q-54 0 -93.5 39t-39.5 94zM31 -4v854q6 50 43 83.5t88 33.5q56 0 92.5 -35t36.5 -90v-846h-260z" />
<glyph unicode="&#xa2;" horiz-adv-x="950" d="M59 571q0 174 110 306.5t277 164.5l3 123h258v-141q29 -11 72.5 -39.5t72.5 -50.5l29 -23l-174 -180v-323l172 -181q-106 -85 -172 -108v-121h-258l-3 100q-167 34 -277 167t-110 306zM309 571q0 -72 38.5 -133t101.5 -92v451q-62 -30 -101 -91.5t-39 -134.5z" />
<glyph unicode="&#xa3;" horiz-adv-x="1095" d="M41 604v189h119v245q0 133 87 232.5t214 99.5h340q80 -7 144.5 -91.5t66.5 -174.5l2 -57h-250q0 2 -0.5 6.5t-3 15t-7.5 18.5t-16 14.5t-26 6.5h-213q-25 0 -43.5 -18t-18.5 -43v-254h322v-189h-322v-342h570v-260h-842l-4 8v594h-119z" />
<glyph unicode="&#xa4;" horiz-adv-x="1136" d="M59 135q0 8 4 12l93 93q-58 107 -58 225q0 122 62 233l-88 88q-4 4 -4 13q0 10 4 14l157 158q8 4 13 4q6 0 14 -4l84 -88q114 65 242 65q120 0 225 -57l80 80q8 4 12 4t12 -4l160 -158q4 -8 4 -14q0 -5 -4 -13l-76 -75q68 -114 68 -246q0 -126 -66 -242l74 -76 q6 -6 6 -12q0 -9 -6 -12l-158 -158q-6 -6 -12 -6q-9 0 -12 6l-78 78q-112 -59 -229 -59q-134 0 -246 67l-88 -86q-6 -6 -15 -6q-6 0 -12 6l-158 158q-4 2 -4 12zM344 469q0 -95 67 -162t162 -67t162.5 67t67.5 162t-67.5 162t-162.5 67t-162 -67t-67 -162z" />
<glyph unicode="&#xa5;" horiz-adv-x="1193" d="M41 1368h276l213 -684l209 684h277l-236 -739q-4 -22 -8 -31h111v-197h-213v-20h213v-199h-213v-182h-260l-2 182h-195v199h195v20h-197v197h78q-34 92 -96 284.5t-107 339.5z" />
<glyph unicode="&#xa6;" horiz-adv-x="546" d="M143 -410v856h260v-856h-260zM143 709v929h260v-929h-260z" />
<glyph unicode="&#xa7;" horiz-adv-x="1048" d="M63 633q0 134 89 233q-50 79 -50 172q0 133 87 232.5t214 99.5h340q53 -5 101.5 -46.5t78 -101.5t31.5 -118l2 -57l-251 -3q0 9 -2 21t-15.5 27.5t-36.5 15.5h-190q-25 0 -43.5 -18t-18.5 -43q0 -27 16.5 -47.5t41.5 -20.5t99 -1t110 -1q122 0 220.5 -99.5t98.5 -230.5 q0 -133 -90 -233q51 -76 51 -172q0 -126 -80.5 -221.5t-201.5 -110.5q0 -4 -218 -4h-118q-109 13 -164 79.5t-55 178.5l2 63h264q0 -5 1 -12.5t9.5 -20t24.5 -12.5h180q26 0 44.5 20.5t18.5 47.5q0 25 -16 44t-39 19h-41q-25 0 -77.5 -2t-78.5 -2q-6 0 -19.5 1t-19.5 1 q-121 8 -210 100.5t-89 221.5zM356 651q0 -23 13.5 -45.5t33.5 -23.5q25 -2 76 -2q25 0 77 1t77 1t42 22.5t17 50.5q0 26 -18.5 44t-44.5 18q-19 0 -58 1t-59 1t-57.5 -1t-55.5 -1q-19 0 -31 -21.5t-12 -44.5z" />
<glyph unicode="&#xa8;" horiz-adv-x="761" d="M63 1204q0 55 39 94t95 39q55 0 94 -38.5t39 -94.5t-39 -94.5t-94 -38.5q-56 0 -95 39t-39 94zM432 1200q0 56 39 94.5t94 38.5t94 -38.5t39 -94.5t-39 -94.5t-94 -38.5t-94 38.5t-39 94.5z" />
<glyph unicode="&#xaa;" horiz-adv-x="905" d="M57 922q0 161 114.5 273t274.5 112q150 0 259 -98.5t126 -245.5v-439h-217v115q-57 -37 -135 -75t-106 -38h-23q-4 0 -12.5 -1t-13.5 -1q-90 0 -164 60q-57 47 -80 120.5t-23 217.5zM90 119v262h760v-262h-760zM274 918q0 -131 11 -156q17 -35 49 -35q23 0 74.5 27 t111.5 71q34 25 98 99l-4 28q-12 58 -59.5 98t-108.5 40q-71 0 -121.5 -50t-50.5 -122z" />
<glyph unicode="&#xab;" horiz-adv-x="956" d="M63 449q0 65 25.5 124t63.5 95l129 116l170 -170l-115 -110q-29 -29 -29 -51q0 -19 25 -52l119 -122q0 -2 -47.5 -46.5t-95.5 -88.5l-48 -44l-98 109q-99 110 -99 240zM504 451q0 66 25.5 124.5t64.5 94.5l129 116l170 -170l-115 -110q-28 -28 -28 -53q0 -21 22 -50 l121 -122q0 -2 -48.5 -46t-96.5 -87l-48 -44l-98 109q-98 109 -98 238z" />
<glyph unicode="&#xac;" horiz-adv-x="1001" d="M123 434v258h756v-504h-263v246h-493z" />
<glyph unicode="&#xad;" horiz-adv-x="854" d="M82 446v263h690v-263h-690z" />
<glyph unicode="&#xaf;" horiz-adv-x="821" d="M63 1110v258h693v-258h-693z" />
<glyph unicode="&#xb0;" horiz-adv-x="749" d="M61 1087q0 129 90 219.5t218 90.5q129 0 219 -90.5t90 -219.5q0 -128 -90 -217.5t-219 -89.5q-128 0 -218 90t-90 217zM223 1087q0 -60 43 -102.5t103 -42.5q61 0 104 42.5t43 102.5q0 62 -43 105t-104 43q-60 0 -103 -43.5t-43 -104.5z" />
<glyph unicode="&#xb1;" horiz-adv-x="1001" d="M123 0v258h248v176h-248v258h248v252h262v-252h246v-258h-246v-176h246v-258h-756z" />
<glyph unicode="&#xb4;" horiz-adv-x="1091" d="M307 1204l295 293l182 -182l-292 -297z" />
<glyph unicode="&#xb5;" horiz-adv-x="1193" d="M102 -412v1356h263l-3 -491q11 -87 76 -145t152 -58q95 0 161 67t66 162l2 465h252v-465q0 -131 -64.5 -241.5t-175 -175t-241.5 -64.5q-123 0 -228 57v-467h-260z" />
<glyph unicode="&#xb6;" horiz-adv-x="1083" d="M63 895q0 130 64.5 240t174.5 173.5t239 63.5q127 0 237 -61.5t175 -168t65 -231.5v-911h-256q0 145 3 447.5t3 447.5q0 62 -31.5 114.5t-83.5 82.5v-1092h-260v440q-145 48 -237.5 173.5t-92.5 281.5zM307 895q0 -124 94 -205v410q-94 -81 -94 -205z" />
<glyph unicode="&#xb7;" horiz-adv-x="393" d="M63 600q0 55 39 94t95 39q55 0 94 -38.5t39 -94.5t-39 -94.5t-94 -38.5q-56 0 -95 39t-39 94z" />
<glyph unicode="&#xb8;" horiz-adv-x="614" d="M63 -131h36t22.5 -0.5t11.5 -1t5.5 -0.5h2.5l9 1q8 0 24.5 0.5t38.5 0.5q43 1 59.5 21.5t22.5 56.5v59h254v-51q0 -79 -31 -144t-78 -103t-98.5 -58.5t-97.5 -20.5h-181v240z" />
<glyph unicode="&#xba;" horiz-adv-x="901" d="M57 909q0 163 115.5 279.5t278.5 116.5q162 0 277.5 -116.5t115.5 -279.5q0 -162 -115.5 -277.5t-277.5 -115.5q-163 0 -278.5 116t-115.5 277zM102 119v262h691v-262h-691zM276 909q0 -72 51 -123t124 -51t124.5 51t51.5 123q0 73 -51.5 124.5t-124.5 51.5t-124 -51 t-51 -125z" />
<glyph unicode="&#xbb;" horiz-adv-x="1009" d="M63 283q115 102 115 110q29 29 29 51q0 29 -23 52l-121 122l193 177l98 -109q97 -108 97 -237q0 -68 -25 -127t-64 -93l-129 -116zM559 276q101 89 114 110l1 1q28 28 28 51q0 29 -22 51l-121 123l193 176l96 -108q96 -107 96 -240q0 -66 -24.5 -124.5t-61.5 -92.5 l-129 -117z" />
<glyph unicode="&#xbf;" horiz-adv-x="985" d="M68 428q0 46 12 96q15 56 76 118.5t186 154.5q18 14 28.5 35t11.5 35l1 14q0 54 39 93.5t94 39.5t93 -40.5t40 -99.5q0 -45 -24.5 -109t-59.5 -91q-19 -15 -60 -44.5t-60 -45t-44 -47.5t-41 -70q-6 -15 -6 -33q0 -46 32.5 -89.5t78.5 -53.5q24 -4 35 -4q52 0 93 30t48 78 q2 12 2 35q0 32 -10.5 52t-32.5 42l229 133q93 -143 93 -266l-7 -61q-36 -143 -152.5 -232.5t-260.5 -89.5q-50 0 -103 12q-143 35 -237 151t-94 257zM377 1245q0 55 38.5 94t94.5 39t94.5 -39t38.5 -94t-38.5 -94t-94.5 -39t-94.5 39t-38.5 94z" />
<glyph unicode="&#xc0;" d="M82 487q0 96 38 183.5t102 150t152 99t185 36.5q182 0 315.5 -119t153.5 -298v-539h-250v156q-47 -40 -158.5 -97t-154.5 -57q-7 0 -27 -1t-32 -1q-107 0 -199 74q-68 56 -96.5 146t-28.5 267zM260 1313l182 182l295 -293l-184 -186zM334 481q0 -168 12 -198 q6 -17 26 -33.5t46 -16.5q31 0 94.5 33t142.5 92q68 53 127 129l-4 39q-15 77 -76.5 129t-142.5 52q-94 0 -159.5 -66t-65.5 -160z" />
<glyph unicode="&#xc1;" d="M82 487q0 96 38 183.5t102 150t152 99t185 36.5q182 0 315.5 -119t153.5 -298v-539h-250v156q-47 -40 -158.5 -97t-154.5 -57q-7 0 -27 -1t-32 -1q-107 0 -199 74q-68 56 -96.5 146t-28.5 267zM276 1202l302 293l182 -182l-299 -297zM334 481q0 -168 12 -198 q6 -17 26 -33.5t46 -16.5q31 0 94.5 33t142.5 92q68 53 127 129l-4 39q-15 77 -76.5 129t-142.5 52q-94 0 -159.5 -66t-65.5 -160z" />
<glyph unicode="&#xc2;" d="M82 487q0 96 38 183.5t102 150t152 99t185 36.5q182 0 315.5 -119t153.5 -298v-539h-250v156q-47 -40 -158.5 -97t-154.5 -57q-7 0 -27 -1t-32 -1q-107 0 -199 74q-68 56 -96.5 146t-28.5 267zM193 1194l108 98q108 97 238 97q66 0 124.5 -25t94.5 -64q12 -13 44.5 -46.5 t52 -55.5t19.5 -27l-169 -170q-44 50 -72 79t-33 32l-6 4q-29 29 -53 29q-18 0 -49 -23l-123 -121q-2 0 -46 48.5t-87 96.5zM334 481q0 -168 12 -198q6 -17 26 -33.5t46 -16.5q31 0 94.5 33t142.5 92q68 53 127 129l-4 39q-15 77 -76.5 129t-142.5 52q-94 0 -159.5 -66 t-65.5 -160z" />
<glyph unicode="&#xc3;" horiz-adv-x="1212" d="M115 1212l106 101q106 98 236 98q66 0 124.5 -25t94.5 -63q27 -31 57 -31q24 0 55 23l123 117l174 -185l-106 -100q-106 -98 -236 -98q-67 0 -126 25.5t-95 64.5q-26 26 -55 26q-24 0 -53 -22l-127 -113zM137 487q0 196 139 332.5t336 136.5q183 0 316.5 -119t152.5 -298 v-539h-250l3 156q-47 -40 -159.5 -97t-156.5 -57q-7 0 -26 -1t-31 -1q-109 0 -201 74q-67 55 -95 145t-28 268zM387 481q0 -168 12 -198q6 -17 26 -33.5t46 -16.5q31 0 96.5 33.5t141.5 91.5q78 60 127 129q2 5 2 9l-4 30q-15 77 -78 129t-144 52q-94 0 -159.5 -66 t-65.5 -160z" />
<glyph unicode="&#xc4;" d="M82 487q0 96 38 183.5t102 150t152 99t185 36.5q182 0 315.5 -119t153.5 -298v-539h-250v156q-47 -40 -158.5 -97t-154.5 -57q-7 0 -27 -1t-32 -1q-107 0 -199 74q-68 56 -96.5 146t-28.5 267zM223 1204q0 56 38.5 94.5t94.5 38.5t94.5 -38.5t38.5 -94.5t-38.5 -94.5 t-94.5 -38.5t-94.5 38.5t-38.5 94.5zM334 481q0 -168 12 -198q6 -17 26 -33.5t46 -16.5q31 0 94.5 33t142.5 92q68 53 127 129l-4 39q-15 77 -76.5 129t-142.5 52q-94 0 -159.5 -66t-65.5 -160zM592 1200q0 56 39 94.5t94 38.5t94 -38.5t39 -94.5t-39 -94.5t-94 -38.5 t-94 38.5t-39 94.5z" />
<glyph unicode="&#xc5;" d="M82 487q0 96 38 183.5t102 150t152 99t185 36.5q182 0 315.5 -119t153.5 -298v-539h-250v156q-47 -40 -158.5 -97t-154.5 -57q-7 0 -27 -1t-32 -1q-107 0 -199 74q-68 56 -96.5 146t-28.5 267zM334 481q0 -168 12 -198q6 -17 26 -33.5t46 -16.5q31 0 94.5 33t142.5 92 q68 53 127 129l-4 39q-15 77 -76.5 129t-142.5 52q-94 0 -159.5 -66t-65.5 -160zM401 1200q0 73 53.5 126.5t127.5 53.5q75 0 127.5 -53t52.5 -127q0 -75 -52.5 -127.5t-127.5 -52.5q-74 0 -127.5 52.5t-53.5 127.5zM514 1200q0 -28 20 -47.5t48 -19.5q29 0 49 19.5t20 47.5 t-20 48t-49 20q-28 0 -48 -20t-20 -48z" />
<glyph unicode="&#xc6;" horiz-adv-x="1835" d="M100 485q0 194 137.5 328.5t333.5 134.5q102 0 192.5 -40.5t156.5 -112.5q67 72 159 112.5t193 40.5q98 0 186 -37.5t154 -103.5q101 -101 131 -242q10 -38 10 -76v-20q0 -65 -16 -137h-650q31 -43 80 -68.5t105 -25.5q96 0 164 65q4 0 6 -2l170 -174 q-66 -66 -154.5 -104.5t-185.5 -38.5q-128 0 -236 63v-29q0 -8 -5 -13t-13 -5h-211q-6 0 -11 5.5t-5 12.5v138q-48 -39 -158.5 -95.5t-153.5 -56.5q-7 0 -26 -1t-29 -1q-109 0 -201 72q-68 55 -95.5 144t-27.5 267zM348 479q0 -180 10 -205q5 -14 27 -28.5t47 -14.5 q32 2 96.5 35.5t139.5 91.5q123 93 123 164q-6 76 -71 128t-149 52q-92 0 -157.5 -65.5t-65.5 -157.5zM1049 571h452q-31 64 -91.5 102t-133.5 38q-72 0 -133 -38.5t-94 -101.5z" />
<glyph unicode="&#xc7;" horiz-adv-x="985" d="M100 465q0 131 64.5 242t175.5 176t242 65q196 0 340 -141q-30 -35 -75 -80.5t-75 -73.5l-29 -28q-69 69 -161 69q-95 0 -162.5 -67t-67.5 -162q0 -94 67.5 -160.5t162.5 -66.5q94 0 166 65l130 -130q43 -46 42 -50q-86 -83 -195 -117v-37q0 -82 -30 -149.5t-77 -107.5 t-98 -61.5t-98 -21.5h-88v238l65 -4q32 0 50 18q22 22 22 96v21q-161 37 -266 167.5t-105 299.5z" />
<glyph unicode="&#xc8;" horiz-adv-x="1110" d="M82 471q0 131 64.5 242t175 176t241.5 65q141 0 243.5 -63.5t158.5 -169.5q63 -118 63 -272q0 -49 -2 -74l-690 -2q22 -66 86 -111t139 -45q97 0 178 74l162 -162q-142 -139 -338 -139q-199 0 -340 141.5t-141 339.5zM270 1300l183 185l295 -295l-187 -184zM336 578h450 q-29 63 -90.5 101t-134.5 38q-72 0 -133 -38t-92 -101z" />
<glyph unicode="&#xc9;" horiz-adv-x="1110" d="M82 471q0 131 64.5 242t175 176t241.5 65q141 0 243.5 -63.5t158.5 -169.5q63 -118 63 -272q0 -49 -2 -74l-690 -2q22 -66 86 -111t139 -45q97 0 178 74l162 -162q-142 -139 -338 -139q-199 0 -340 141.5t-141 339.5zM336 578h450q-29 63 -90.5 101t-134.5 38 q-72 0 -133 -38t-92 -101zM352 1198l301 295l183 -184l-299 -295z" />
<glyph unicode="&#xca;" horiz-adv-x="1110" d="M82 471q0 131 64.5 242t175 176t241.5 65q141 0 243.5 -63.5t158.5 -169.5q63 -118 63 -272q0 -49 -2 -74l-690 -2q22 -66 86 -111t139 -45q97 0 178 74l162 -162q-142 -139 -338 -139q-199 0 -340 141.5t-141 339.5zM207 1194l108 98q108 97 238 97q66 0 124.5 -25 t94.5 -64q13 -14 45.5 -47.5t52 -55t19.5 -26.5l-170 -170q-102 115 -111 115q-29 29 -51 29q-20 0 -51 -23l-123 -121q-2 0 -46 48.5t-87 96.5zM336 578h450q-29 63 -90.5 101t-134.5 38q-72 0 -133 -38t-92 -101z" />
<glyph unicode="&#xcb;" horiz-adv-x="1110" d="M82 471q0 131 64.5 242t175 176t241.5 65q141 0 243.5 -63.5t158.5 -169.5q63 -118 63 -272q0 -49 -2 -74l-690 -2q22 -66 86 -111t139 -45q97 0 178 74l162 -162q-142 -139 -338 -139q-199 0 -340 141.5t-141 339.5zM240 1204q0 55 39.5 94t93.5 39q55 0 94 -38.5 t39 -94.5t-39 -94.5t-94 -38.5q-54 0 -93.5 39t-39.5 94zM336 578h450q-29 63 -90.5 101t-134.5 38q-72 0 -133 -38t-92 -101zM608 1200q0 55 39.5 94t93.5 39q55 0 94 -38.5t39 -94.5t-39 -94.5t-94 -38.5q-54 0 -93.5 39t-39.5 94z" />
<glyph unicode="&#xcc;" horiz-adv-x="604" d="M63 1313l183 182l295 -293l-185 -184zM215 -2v963h258v-963h-258z" />
<glyph unicode="&#xcd;" horiz-adv-x="612" d="M63 1196l304 295l182 -182l-299 -297zM102 -2v963h258v-963h-258z" />
<glyph unicode="&#xce;" horiz-adv-x="811" d="M20 1206l109 99q107 96 238 96q67 0 125 -24t94 -62q9 -9 26.5 -27t31.5 -32.5t28 -29.5t22 -25.5t8 -14.5l-170 -170q-89 99 -109 113l-1 1q-27 27 -51 27q-19 0 -52 -22l-122 -119zM231 -2v963h258v-963h-258z" />
<glyph unicode="&#xcf;" horiz-adv-x="761" d="M63 1204q0 55 39 94t95 39q55 0 94 -38.5t39 -94.5t-39 -94.5t-94 -38.5q-56 0 -95 39t-39 94zM250 -4v962h258v-962h-258zM432 1200q0 56 39 94.5t94 38.5t94 -38.5t39 -94.5t-39 -94.5t-94 -38.5t-94 38.5t-39 94.5z" />
<glyph unicode="&#xd0;" horiz-adv-x="1083" d="M115 428q0 175 112 292.5t310 117.5q7 0 23 -1t24 -1l-47 161h-226v263h148l-33 112h264l37 -112h172v-263h-86q17 -56 37.5 -118.5t30.5 -94t10 -32.5q8 -26 26 -81.5t26 -84t16 -73t8 -83.5v-16q-5 -172 -129 -292t-297 -120q-177 0 -301.5 124.5t-124.5 301.5z M371 426q0 -71 50 -120.5t122 -49.5q71 0 120.5 50t49.5 120q0 71 -50 121.5t-120 50.5q-72 0 -122 -50.5t-50 -121.5z" />
<glyph unicode="&#xd1;" horiz-adv-x="1275" d="M164 1210l106 103q103 98 234 98q67 0 126 -25.5t95 -64.5q29 -29 55 -29q24 0 58 23l123 115l174 -185l-107 -100q-103 -98 -233 -98q-67 0 -128 25.5t-98 64.5q-28 28 -53 28q-24 0 -53 -22l-127 -115zM178 0v475q0 98 39 187t105 153.5t156.5 102.5t189.5 38 q132 0 243.5 -65.5t176.5 -177.5t65 -244v-469h-254q0 74 -1 232.5t-1 236.5q0 97 -67 164t-162 67q-89 0 -155 -58t-75 -146v-496h-260z" />
<glyph unicode="&#xd2;" horiz-adv-x="1126" d="M82 471q0 131 64.5 242t175 176t241.5 65t241.5 -65t175 -176t64.5 -242q0 -198 -141 -339.5t-340 -141.5t-340 141.5t-141 339.5zM270 1317l183 182l309 -293l-199 -186zM336 471q0 -94 66 -160.5t161 -66.5t162.5 66.5t67.5 160.5q0 95 -67.5 162t-162.5 67t-161 -67 t-66 -162z" />
<glyph unicode="&#xd3;" horiz-adv-x="1126" d="M82 471q0 131 64.5 242t175 176t241.5 65t241.5 -65t175 -176t64.5 -242q0 -198 -141 -339.5t-340 -141.5t-340 141.5t-141 339.5zM332 1202l303 293l182 -182l-299 -297zM336 471q0 -94 66 -160.5t161 -66.5t162.5 66.5t67.5 160.5q0 95 -67.5 162t-162.5 67t-161 -67 t-66 -162z" />
<glyph unicode="&#xd4;" horiz-adv-x="1126" d="M82 471q0 131 64.5 242t175 176t241.5 65t241.5 -65t175 -176t64.5 -242q0 -198 -141 -339.5t-340 -141.5t-340 141.5t-141 339.5zM207 1202l108 98q108 97 238 97q68 0 127 -24.5t94 -63.5q7 -7 43.5 -44t55 -58t18.5 -27l-170 -168q-44 49 -72 77t-33 31l-6 4 q-29 29 -53 29q-18 0 -49 -23l-123 -118q-2 0 -46.5 47.5t-88.5 94.5zM336 471q0 -94 66 -160.5t161 -66.5t162.5 66.5t67.5 160.5q0 95 -67.5 162t-162.5 67t-161 -67t-66 -162z" />
<glyph unicode="&#xd5;" horiz-adv-x="1155" d="M53 1206l109 103q103 98 233 98q66 0 124.5 -25.5t96.5 -64.5q29 -29 56 -29q24 0 55 23l125 114l174 -184l-108 -100q-104 -99 -234 -99q-66 0 -126 26.5t-97 64.5q-28 28 -53 28q-23 0 -56 -22l-127 -115zM70 471q0 131 64.5 242t175 176t241.5 65t241.5 -65t175 -176 t64.5 -242q0 -198 -141 -339.5t-340 -141.5t-340 141.5t-141 339.5zM322 471q0 -94 67 -160.5t162 -66.5t162 66.5t67 160.5q0 95 -67 162t-162 67t-162 -67t-67 -162z" />
<glyph unicode="&#xd6;" horiz-adv-x="1126" d="M82 471q0 131 64.5 242t175 176t241.5 65t241.5 -65t175 -176t64.5 -242q0 -198 -141 -339.5t-340 -141.5t-340 141.5t-141 339.5zM227 1204q0 56 38.5 94.5t94.5 38.5t95 -39t39 -94t-39 -94t-95 -39t-94.5 38.5t-38.5 94.5zM336 471q0 -94 66 -160.5t161 -66.5 t162.5 66.5t67.5 160.5q0 95 -67.5 162t-162.5 67t-161 -67t-66 -162zM596 1200q0 56 39 94.5t94 38.5t94 -38.5t39 -94.5t-39 -94.5t-94 -38.5t-94 38.5t-39 94.5z" />
<glyph unicode="&#xd7;" horiz-adv-x="882" d="M82 764l186 186l178 -178l172 172l183 -182l-172 -174l172 -172l-185 -187l-174 174l-174 -176l-184 183l176 176z" />
<glyph unicode="&#xd8;" horiz-adv-x="1126" d="M82 471q0 131 64.5 242t175 176t241.5 65t241.5 -65t175 -176t64.5 -242q0 -198 -141 -339.5t-340 -141.5t-340 141.5t-141 339.5zM305 459q0 -70 39 -131l238 383q-4 0 -13 1t-14 1q-62 0 -119 -32t-92 -87q-39 -64 -39 -135zM547 197q8 -2 26 -2q63 0 121 31t92 87 q37 61 37 133q0 76 -37 134z" />
<glyph unicode="&#xd9;" horiz-adv-x="1167" d="M102 469v475h252q2 -328 2 -475q0 -95 67 -162t161 -67q88 0 153 58t74 144l2 502h252v-481q-1 -97 -39.5 -184.5t-102.5 -151.5t-153 -101.5t-186 -37.5q-131 0 -242 64.5t-175.5 175t-64.5 241.5zM279 1309l182 182l295 -293l-187 -184z" />
<glyph unicode="&#xda;" horiz-adv-x="1167" d="M102 469v475h252q2 -328 2 -475q0 -95 67 -162t161 -67q88 0 153 58t74 144l2 502h252v-481q-1 -97 -39.5 -184.5t-102.5 -151.5t-153 -101.5t-186 -37.5q-131 0 -242 64.5t-175.5 175t-64.5 241.5zM391 1198l295 293l182 -182l-290 -295z" />
<glyph unicode="&#xdb;" horiz-adv-x="1167" d="M102 469v475h252q2 -328 2 -475q0 -95 67 -162t161 -67q88 0 153 58t74 144l2 502h252v-481q-1 -97 -39.5 -184.5t-102.5 -151.5t-153 -101.5t-186 -37.5q-131 0 -242 64.5t-175.5 175t-64.5 241.5zM240 1192l108 98q107 96 238 96q66 0 125 -24.5t94 -63.5 q13 -14 45.5 -47.5t52 -55t19.5 -26.5l-170 -170q-102 115 -111 115q-29 29 -51 29q-20 0 -51 -23l-123 -121q-2 0 -46 48.5t-87 96.5z" />
<glyph unicode="&#xdc;" horiz-adv-x="1167" d="M102 469v475h252q2 -328 2 -475q0 -95 67 -162t161 -67q88 0 153 58t74 144l2 502h252v-481q-1 -97 -39.5 -184.5t-102.5 -151.5t-153 -101.5t-186 -37.5q-131 0 -242 64.5t-175.5 175t-64.5 241.5zM252 1194q0 56 39 94.5t94 38.5t94 -38.5t39 -94.5t-39 -94.5 t-94 -38.5t-94 38.5t-39 94.5zM621 1190q0 56 38.5 94.5t94.5 38.5t94.5 -38.5t38.5 -94.5t-38.5 -94.5t-94.5 -38.5t-94.5 38.5t-38.5 94.5z" />
<glyph unicode="&#xdd;" horiz-adv-x="1193" d="M102 479v465h252q2 -311 2 -465q0 -95 66.5 -162t161.5 -67q87 0 151.5 58t75.5 145l-2 491h262v-1356h-260v467q-105 -57 -227 -57q-131 0 -242 64.5t-175.5 175t-64.5 241.5zM395 1202l295 295l182 -184l-292 -295z" />
<glyph unicode="&#xde;" horiz-adv-x="1083" d="M63 2v1358h259v-246q104 55 221 55q97 0 185.5 -38t152.5 -102t101.5 -152t37.5 -185q0 -198 -139.5 -337.5t-337.5 -139.5q-121 0 -221 53v-266h-259zM315 682q0 -94 67 -160.5t161 -66.5t159.5 66.5t65.5 160.5t-65.5 159.5t-159.5 65.5t-161 -66t-67 -159z" />
<glyph unicode="&#xdf;" horiz-adv-x="1003" d="M63 -86v1438q0 6 6 11t13 5h455q158 0 269.5 -113t111.5 -272q0 -162 -115 -274q64 -56 99.5 -135.5t35.5 -170.5q0 -75 -35 -151t-89 -132t-121 -91t-128 -35q-13 0 -37 4q-2 0 -2 96q0 156 2 156q61 0 108.5 43t47.5 102q0 60 -49.5 109t-108.5 49q2 0 2 78v56.5 t-0.5 60t-1 52.5t-0.5 39.5v16.5q47 0 87 41t40 90t-41 85t-92 36h-196v-1194q0 -7 -5.5 -12.5t-13.5 -5.5h-223q-8 0 -13.5 5.5t-5.5 12.5z" />
<glyph unicode="&#xe0;" d="M82 487q0 96 38 183.5t102 150t152 99t185 36.5q182 0 315.5 -119t153.5 -298v-539h-250v156q-47 -40 -158.5 -97t-154.5 -57q-7 0 -27 -1t-32 -1q-107 0 -199 74q-68 56 -96.5 146t-28.5 267zM260 1313l182 182l295 -293l-184 -186zM334 481q0 -168 12 -198 q6 -17 26 -33.5t46 -16.5q31 0 94.5 33t142.5 92q68 53 127 129l-4 39q-15 77 -76.5 129t-142.5 52q-94 0 -159.5 -66t-65.5 -160z" />
<glyph unicode="&#xe1;" d="M82 487q0 96 38 183.5t102 150t152 99t185 36.5q182 0 315.5 -119t153.5 -298v-539h-250v156q-47 -40 -158.5 -97t-154.5 -57q-7 0 -27 -1t-32 -1q-107 0 -199 74q-68 56 -96.5 146t-28.5 267zM276 1202l302 293l182 -182l-299 -297zM334 481q0 -168 12 -198 q6 -17 26 -33.5t46 -16.5q31 0 94.5 33t142.5 92q68 53 127 129l-4 39q-15 77 -76.5 129t-142.5 52q-94 0 -159.5 -66t-65.5 -160z" />
<glyph unicode="&#xe2;" d="M82 487q0 96 38 183.5t102 150t152 99t185 36.5q182 0 315.5 -119t153.5 -298v-539h-250v156q-47 -40 -158.5 -97t-154.5 -57q-7 0 -27 -1t-32 -1q-107 0 -199 74q-68 56 -96.5 146t-28.5 267zM193 1194l108 98q108 97 238 97q66 0 124.5 -25t94.5 -64q12 -13 44.5 -46.5 t52 -55.5t19.5 -27l-169 -170q-44 50 -72 79t-33 32l-6 4q-29 29 -53 29q-18 0 -49 -23l-123 -121q-2 0 -46 48.5t-87 96.5zM334 481q0 -168 12 -198q6 -17 26 -33.5t46 -16.5q31 0 94.5 33t142.5 92q68 53 127 129l-4 39q-15 77 -76.5 129t-142.5 52q-94 0 -159.5 -66 t-65.5 -160z" />
<glyph unicode="&#xe3;" horiz-adv-x="1155" d="M115 1212l106 101q106 98 236 98q66 0 124.5 -25t94.5 -63q27 -31 57 -31q24 0 55 23l123 117l174 -185l-106 -100q-106 -98 -236 -98q-67 0 -126 25.5t-95 64.5q-26 26 -55 26q-24 0 -53 -22l-127 -113zM137 487q0 196 139 332.5t336 136.5q183 0 316.5 -119t152.5 -298 v-539h-250l3 156q-47 -40 -159.5 -97t-156.5 -57q-7 0 -26 -1t-31 -1q-109 0 -201 74q-67 55 -95 145t-28 268zM387 481q0 -168 12 -198q6 -17 26 -33.5t46 -16.5q31 0 96.5 33.5t141.5 91.5q78 60 127 129q2 5 2 9l-4 30q-15 77 -78 129t-144 52q-94 0 -159.5 -66 t-65.5 -160z" />
<glyph unicode="&#xe4;" d="M82 487q0 96 38 183.5t102 150t152 99t185 36.5q182 0 315.5 -119t153.5 -298v-539h-250v156q-47 -40 -158.5 -97t-154.5 -57q-7 0 -27 -1t-32 -1q-107 0 -199 74q-68 56 -96.5 146t-28.5 267zM223 1204q0 56 38.5 94.5t94.5 38.5t94.5 -38.5t38.5 -94.5t-38.5 -94.5 t-94.5 -38.5t-94.5 38.5t-38.5 94.5zM334 481q0 -168 12 -198q6 -17 26 -33.5t46 -16.5q31 0 94.5 33t142.5 92q68 53 127 129l-4 39q-15 77 -76.5 129t-142.5 52q-94 0 -159.5 -66t-65.5 -160zM592 1200q0 56 39 94.5t94 38.5t94 -38.5t39 -94.5t-39 -94.5t-94 -38.5 t-94 38.5t-39 94.5z" />
<glyph unicode="&#xe5;" d="M82 487q0 96 38 183.5t102 150t152 99t185 36.5q182 0 315.5 -119t153.5 -298v-539h-250v156q-47 -40 -158.5 -97t-154.5 -57q-7 0 -27 -1t-32 -1q-107 0 -199 74q-68 56 -96.5 146t-28.5 267zM334 481q0 -168 12 -198q6 -17 26 -33.5t46 -16.5q31 0 94.5 33t142.5 92 q68 53 127 129l-4 39q-15 77 -76.5 129t-142.5 52q-94 0 -159.5 -66t-65.5 -160zM401 1200q0 73 53.5 126.5t127.5 53.5q75 0 127.5 -53t52.5 -127q0 -75 -52.5 -127.5t-127.5 -52.5q-74 0 -127.5 52.5t-53.5 127.5zM514 1200q0 -28 20 -47.5t48 -19.5q29 0 49 19.5t20 47.5 t-20 48t-49 20q-28 0 -48 -20t-20 -48z" />
<glyph unicode="&#xe6;" horiz-adv-x="1818" d="M100 485q0 194 137.5 328.5t333.5 134.5q102 0 192.5 -40.5t156.5 -112.5q67 72 159 112.5t193 40.5q98 0 186 -37.5t154 -103.5q101 -101 131 -242q10 -38 10 -76v-20q0 -65 -16 -137h-650q31 -43 80 -68.5t105 -25.5q96 0 164 65q4 0 6 -2l170 -174 q-66 -66 -154.5 -104.5t-185.5 -38.5q-128 0 -236 63v-29q0 -8 -5 -13t-13 -5h-211q-6 0 -11 5.5t-5 12.5v138q-48 -39 -158.5 -95.5t-153.5 -56.5q-7 0 -26 -1t-29 -1q-109 0 -201 72q-68 55 -95.5 144t-27.5 267zM348 479q0 -180 10 -205q5 -14 27 -28.5t47 -14.5 q32 2 96.5 35.5t139.5 91.5q123 93 123 164q-6 76 -71 128t-149 52q-92 0 -157.5 -65.5t-65.5 -157.5zM1049 571h452q-31 64 -91.5 102t-133.5 38q-72 0 -133 -38.5t-94 -101.5z" />
<glyph unicode="&#xe7;" horiz-adv-x="985" d="M100 465q0 131 64.5 242t175.5 176t242 65q196 0 340 -141q-30 -35 -75 -80.5t-75 -73.5l-29 -28q-69 69 -161 69q-95 0 -162.5 -67t-67.5 -162q0 -94 67.5 -160.5t162.5 -66.5q94 0 166 65l130 -130q43 -46 42 -50q-86 -83 -195 -117v-37q0 -82 -30 -149.5t-77 -107.5 t-98 -61.5t-98 -21.5h-88v238l65 -4q32 0 50 18q22 22 22 96v21q-161 37 -266 167.5t-105 299.5z" />
<glyph unicode="&#xe8;" horiz-adv-x="1110" d="M82 471q0 131 64.5 242t175 176t241.5 65q141 0 243.5 -63.5t158.5 -169.5q63 -118 63 -272q0 -49 -2 -74l-690 -2q22 -66 86 -111t139 -45q97 0 178 74l162 -162q-142 -139 -338 -139q-199 0 -340 141.5t-141 339.5zM270 1300l183 185l295 -295l-187 -184zM336 578h450 q-29 63 -90.5 101t-134.5 38q-72 0 -133 -38t-92 -101z" />
<glyph unicode="&#xe9;" horiz-adv-x="1110" d="M82 471q0 131 64.5 242t175 176t241.5 65q141 0 243.5 -63.5t158.5 -169.5q63 -118 63 -272q0 -49 -2 -74l-690 -2q22 -66 86 -111t139 -45q97 0 178 74l162 -162q-142 -139 -338 -139q-199 0 -340 141.5t-141 339.5zM336 578h450q-29 63 -90.5 101t-134.5 38 q-72 0 -133 -38t-92 -101zM352 1198l301 295l183 -184l-299 -295z" />
<glyph unicode="&#xea;" horiz-adv-x="1110" d="M82 471q0 131 64.5 242t175 176t241.5 65q141 0 243.5 -63.5t158.5 -169.5q63 -118 63 -272q0 -49 -2 -74l-690 -2q22 -66 86 -111t139 -45q97 0 178 74l162 -162q-142 -139 -338 -139q-199 0 -340 141.5t-141 339.5zM207 1194l108 98q108 97 238 97q66 0 124.5 -25 t94.5 -64q13 -14 45.5 -47.5t52 -55t19.5 -26.5l-170 -170q-102 115 -111 115q-29 29 -51 29q-20 0 -51 -23l-123 -121q-2 0 -46 48.5t-87 96.5zM336 578h450q-29 63 -90.5 101t-134.5 38q-72 0 -133 -38t-92 -101z" />
<glyph unicode="&#xeb;" horiz-adv-x="1110" d="M82 471q0 131 64.5 242t175 176t241.5 65q141 0 243.5 -63.5t158.5 -169.5q63 -118 63 -272q0 -49 -2 -74l-690 -2q22 -66 86 -111t139 -45q97 0 178 74l162 -162q-142 -139 -338 -139q-199 0 -340 141.5t-141 339.5zM240 1204q0 55 39.5 94t93.5 39q55 0 94 -38.5 t39 -94.5t-39 -94.5t-94 -38.5q-54 0 -93.5 39t-39.5 94zM336 578h450q-29 63 -90.5 101t-134.5 38q-72 0 -133 -38t-92 -101zM608 1200q0 55 39.5 94t93.5 39q55 0 94 -38.5t39 -94.5t-39 -94.5t-94 -38.5q-54 0 -93.5 39t-39.5 94z" />
<glyph unicode="&#xec;" horiz-adv-x="604" d="M63 1313l183 182l295 -293l-185 -184zM215 -2v963h258v-963h-258z" />
<glyph unicode="&#xed;" horiz-adv-x="612" d="M63 1196l304 295l182 -182l-299 -297zM102 -2v963h258v-963h-258z" />
<glyph unicode="&#xee;" horiz-adv-x="722" d="M20 1206l109 99q107 96 238 96q67 0 125 -24t94 -62q9 -9 26.5 -27t31.5 -32.5t28 -29.5t22 -25.5t8 -14.5l-170 -170q-89 99 -109 113l-1 1q-27 27 -51 27q-19 0 -52 -22l-122 -119zM231 -2v963h258v-963h-258z" />
<glyph unicode="&#xef;" horiz-adv-x="761" d="M63 1204q0 55 39 94t95 39q55 0 94 -38.5t39 -94.5t-39 -94.5t-94 -38.5q-56 0 -95 39t-39 94zM250 -4v962h258v-962h-258zM432 1200q0 56 39 94.5t94 38.5t94 -38.5t39 -94.5t-39 -94.5t-94 -38.5t-94 38.5t-39 94.5z" />
<glyph unicode="&#xf0;" horiz-adv-x="1083" d="M115 428q0 175 112 292.5t310 117.5q7 0 23 -1t24 -1l-47 161h-226v263h148l-33 112h264l37 -112h172v-263h-86q17 -56 37.5 -118.5t30.5 -94t10 -32.5q8 -26 26 -81.5t26 -84t16 -73t8 -83.5v-16q-5 -172 -129 -292t-297 -120q-177 0 -301.5 124.5t-124.5 301.5z M371 426q0 -71 50 -120.5t122 -49.5q71 0 120.5 50t49.5 120q0 71 -50 121.5t-120 50.5q-72 0 -122 -50.5t-50 -121.5z" />
<glyph unicode="&#xf1;" horiz-adv-x="1193" d="M164 1210l106 103q103 98 234 98q67 0 126 -25.5t95 -64.5q29 -29 55 -29q24 0 58 23l123 115l174 -185l-107 -100q-103 -98 -233 -98q-67 0 -128 25.5t-98 64.5q-28 28 -53 28q-24 0 -53 -22l-127 -115zM178 0v475q0 98 39 187t105 153.5t156.5 102.5t189.5 38 q132 0 243.5 -65.5t176.5 -177.5t65 -244v-469h-254q0 74 -1 232.5t-1 236.5q0 97 -67 164t-162 67q-89 0 -155 -58t-75 -146v-496h-260z" />
<glyph unicode="&#xf2;" horiz-adv-x="1126" d="M82 471q0 131 64.5 242t175 176t241.5 65t241.5 -65t175 -176t64.5 -242q0 -198 -141 -339.5t-340 -141.5t-340 141.5t-141 339.5zM270 1317l183 182l309 -293l-199 -186zM336 471q0 -94 66 -160.5t161 -66.5t162.5 66.5t67.5 160.5q0 95 -67.5 162t-162.5 67t-161 -67 t-66 -162z" />
<glyph unicode="&#xf3;" horiz-adv-x="1126" d="M82 471q0 131 64.5 242t175 176t241.5 65t241.5 -65t175 -176t64.5 -242q0 -198 -141 -339.5t-340 -141.5t-340 141.5t-141 339.5zM332 1202l303 293l182 -182l-299 -297zM336 471q0 -94 66 -160.5t161 -66.5t162.5 66.5t67.5 160.5q0 95 -67.5 162t-162.5 67t-161 -67 t-66 -162z" />
<glyph unicode="&#xf4;" horiz-adv-x="1126" d="M82 471q0 131 64.5 242t175 176t241.5 65t241.5 -65t175 -176t64.5 -242q0 -198 -141 -339.5t-340 -141.5t-340 141.5t-141 339.5zM207 1202l108 98q108 97 238 97q68 0 127 -24.5t94 -63.5q7 -7 43.5 -44t55 -58t18.5 -27l-170 -168q-44 49 -72 77t-33 31l-6 4 q-29 29 -53 29q-18 0 -49 -23l-123 -118q-2 0 -46.5 47.5t-88.5 94.5zM336 471q0 -94 66 -160.5t161 -66.5t162.5 66.5t67.5 160.5q0 95 -67.5 162t-162.5 67t-161 -67t-66 -162z" />
<glyph unicode="&#xf5;" horiz-adv-x="1142" d="M53 1206l109 103q103 98 233 98q66 0 124.5 -25.5t96.5 -64.5q29 -29 56 -29q24 0 55 23l125 114l174 -184l-108 -100q-104 -99 -234 -99q-66 0 -126 26.5t-97 64.5q-28 28 -53 28q-23 0 -56 -22l-127 -115zM70 471q0 131 64.5 242t175 176t241.5 65t241.5 -65t175 -176 t64.5 -242q0 -198 -141 -339.5t-340 -141.5t-340 141.5t-141 339.5zM322 471q0 -94 67 -160.5t162 -66.5t162 66.5t67 160.5q0 95 -67 162t-162 67t-162 -67t-67 -162z" />
<glyph unicode="&#xf6;" horiz-adv-x="1126" d="M82 471q0 131 64.5 242t175 176t241.5 65t241.5 -65t175 -176t64.5 -242q0 -198 -141 -339.5t-340 -141.5t-340 141.5t-141 339.5zM227 1204q0 56 38.5 94.5t94.5 38.5t95 -39t39 -94t-39 -94t-95 -39t-94.5 38.5t-38.5 94.5zM336 471q0 -94 66 -160.5t161 -66.5 t162.5 66.5t67.5 160.5q0 95 -67.5 162t-162.5 67t-161 -67t-66 -162zM596 1200q0 56 39 94.5t94 38.5t94 -38.5t39 -94.5t-39 -94.5t-94 -38.5t-94 38.5t-39 94.5z" />
<glyph unicode="&#xf7;" horiz-adv-x="882" d="M82 520v260h719v-260h-719zM303 315q0 54 39 92.5t94 38.5t94 -38.5t39 -92.5q0 -55 -38.5 -94t-94.5 -39t-94.5 39t-38.5 94zM303 993q0 55 38.5 94t94.5 39t94.5 -39t38.5 -94t-38.5 -94t-94.5 -39t-94.5 39t-38.5 94z" />
<glyph unicode="&#xf8;" horiz-adv-x="1126" d="M82 465q0 131 64.5 242t175 176t241.5 65q73 0 144 -22l41 63q4 8 12 8q4 0 12 -4l189 -116q8 -5 8 -17q0 -6 -2 -8l-43 -68q120 -133 120 -319q0 -198 -141 -339.5t-340 -141.5q-67 0 -129 18l-41 -68q-5 -8 -16 -8q-6 0 -8 2l-191 119q-8 5 -8 16q0 7 2 9l41 63 q-131 137 -131 330zM305 459q0 -70 39 -131l238 383q-4 0 -13 1t-14 1q-62 0 -119 -32t-92 -87q-39 -64 -39 -135zM547 197q8 -2 26 -2q63 0 121 31t92 87q37 61 37 133q0 76 -37 134z" />
<glyph unicode="&#xf9;" horiz-adv-x="1167" d="M102 469v475h252q2 -328 2 -475q0 -95 67 -162t161 -67q88 0 153 58t74 144l2 502h252v-481q-1 -97 -39.5 -184.5t-102.5 -151.5t-153 -101.5t-186 -37.5q-131 0 -242 64.5t-175.5 175t-64.5 241.5zM279 1309l182 182l295 -293l-187 -184z" />
<glyph unicode="&#xfa;" horiz-adv-x="1167" d="M102 469v475h252q2 -328 2 -475q0 -95 67 -162t161 -67q88 0 153 58t74 144l2 502h252v-481q-1 -97 -39.5 -184.5t-102.5 -151.5t-153 -101.5t-186 -37.5q-131 0 -242 64.5t-175.5 175t-64.5 241.5zM391 1198l295 293l182 -182l-290 -295z" />
<glyph unicode="&#xfb;" horiz-adv-x="1167" d="M102 469v475h252q2 -328 2 -475q0 -95 67 -162t161 -67q88 0 153 58t74 144l2 502h252v-481q-1 -97 -39.5 -184.5t-102.5 -151.5t-153 -101.5t-186 -37.5q-131 0 -242 64.5t-175.5 175t-64.5 241.5zM240 1192l108 98q107 96 238 96q66 0 125 -24.5t94 -63.5 q13 -14 45.5 -47.5t52 -55t19.5 -26.5l-170 -170q-102 115 -111 115q-29 29 -51 29q-20 0 -51 -23l-123 -121q-2 0 -46 48.5t-87 96.5z" />
<glyph unicode="&#xfc;" horiz-adv-x="1167" d="M102 469v475h252q2 -328 2 -475q0 -95 67 -162t161 -67q88 0 153 58t74 144l2 502h252v-481q-1 -97 -39.5 -184.5t-102.5 -151.5t-153 -101.5t-186 -37.5q-131 0 -242 64.5t-175.5 175t-64.5 241.5zM252 1194q0 56 39 94.5t94 38.5t94 -38.5t39 -94.5t-39 -94.5 t-94 -38.5t-94 38.5t-39 94.5zM621 1190q0 56 38.5 94.5t94.5 38.5t94.5 -38.5t38.5 -94.5t-38.5 -94.5t-94.5 -38.5t-94.5 38.5t-38.5 94.5z" />
<glyph unicode="&#xfd;" horiz-adv-x="1193" d="M102 479v465h252q2 -311 2 -465q0 -95 66.5 -162t161.5 -67q87 0 151.5 58t75.5 145l-2 491h262v-1356h-260v467q-105 -57 -227 -57q-131 0 -242 64.5t-175.5 175t-64.5 241.5zM395 1202l295 295l182 -184l-292 -295z" />
<glyph unicode="&#xfe;" horiz-adv-x="1083" d="M63 2v1358h259v-246q104 55 221 55q97 0 185.5 -38t152.5 -102t101.5 -152t37.5 -185q0 -198 -139.5 -337.5t-337.5 -139.5q-121 0 -221 53v-266h-259zM315 682q0 -94 67 -160.5t161 -66.5t159.5 66.5t65.5 160.5t-65.5 159.5t-159.5 65.5t-161 -66t-67 -159z" />
<glyph unicode="&#xff;" horiz-adv-x="1097" d="M102 479v465h252q2 -311 2 -465q0 -95 66.5 -162t161.5 -67q87 0 151.5 58t75.5 145l-2 491h262v-1356h-260v467q-105 -57 -227 -57q-131 0 -242 64.5t-175.5 175t-64.5 241.5zM199 1196q0 54 39 93.5t94 39.5q54 0 92.5 -39.5t38.5 -93.5q0 -55 -38.5 -94t-92.5 -39 q-56 0 -94.5 38.5t-38.5 94.5zM649 1192q0 54 38.5 92.5t92.5 38.5q55 0 94 -38.5t39 -92.5q0 -56 -38.5 -94.5t-94.5 -38.5q-54 0 -92.5 39t-38.5 94z" />
<glyph unicode="&#x152;" horiz-adv-x="1808" d="M63 465q0 199 142 341t340 142q105 0 197.5 -43t160.5 -119q68 75 161.5 118.5t197.5 43.5q98 0 186 -37.5t154 -103.5q101 -101 131 -242q10 -38 10 -76v-20q0 -51 -10 -119h-672q26 -47 85 -79.5t116 -32.5q93 0 165 69q174 -183 177 -180q-66 -66 -155.5 -104.5 t-186.5 -38.5q-104 0 -198 42t-161 117q-67 -75 -160 -117t-198 -42q-130 0 -241 64.5t-176 175.5t-65 241zM317 465q0 -94 67 -160.5t161 -66.5q95 0 162 66.5t67 160.5q0 95 -67 162t-162 67q-94 0 -161 -67t-67 -162zM1034 571h451q-29 63 -90.5 101.5t-134.5 38.5 q-72 0 -133.5 -38.5t-92.5 -101.5z" />
<glyph unicode="&#x153;" horiz-adv-x="1808" d="M63 465q0 199 142 341t340 142q105 0 197.5 -43t160.5 -119q68 75 161.5 118.5t197.5 43.5q98 0 186 -37.5t154 -103.5q101 -101 131 -242q10 -38 10 -76v-20q0 -51 -10 -119h-672q26 -47 85 -79.5t116 -32.5q93 0 165 69q174 -183 177 -180q-66 -66 -155.5 -104.5 t-186.5 -38.5q-104 0 -198 42t-161 117q-67 -75 -160 -117t-198 -42q-130 0 -241 64.5t-176 175.5t-65 241zM317 465q0 -94 67 -160.5t161 -66.5q95 0 162 66.5t67 160.5q0 95 -67 162t-162 67q-94 0 -161 -67t-67 -162zM1034 571h451q-29 63 -90.5 101.5t-134.5 38.5 q-72 0 -133.5 -38.5t-92.5 -101.5z" />
<glyph unicode="&#x178;" horiz-adv-x="1097" d="M102 479v465h252q2 -311 2 -465q0 -95 66.5 -162t161.5 -67q87 0 151.5 58t75.5 145l-2 491h262v-1356h-260v467q-105 -57 -227 -57q-131 0 -242 64.5t-175.5 175t-64.5 241.5zM199 1196q0 54 39 93.5t94 39.5q54 0 92.5 -39.5t38.5 -93.5q0 -55 -38.5 -94t-92.5 -39 q-56 0 -94.5 38.5t-38.5 94.5zM670 1192q0 54 38.5 92.5t92.5 38.5q55 0 94 -38.5t39 -92.5q0 -56 -39 -94.5t-94 -38.5q-54 0 -92.5 39t-38.5 94z" />
<glyph unicode="&#x2c6;" horiz-adv-x="811" d="M63 1194l109 98q108 97 238 97q68 0 126.5 -25t94.5 -64q12 -14 44.5 -47t52.5 -55t20 -27l-170 -170q-44 50 -72 79t-34 32l-5 4q-29 29 -53 29q-21 0 -52 -23l-120 -121q-2 0 -46.5 48.5t-88.5 96.5z" />
<glyph unicode="&#x2dc;" horiz-adv-x="1099" d="M63 1212l109 101q103 98 234 98q66 0 124.5 -25t94.5 -63q27 -31 57 -31q24 0 55 23l123 117l176 -185l-108 -100q-106 -98 -236 -98q-67 0 -126 25.5t-95 64.5q-26 26 -53 26q-23 0 -56 -22l-126 -113z" />
<glyph unicode="&#x2000;" horiz-adv-x="821" />
<glyph unicode="&#x2001;" horiz-adv-x="1642" />
<glyph unicode="&#x2002;" horiz-adv-x="821" />
<glyph unicode="&#x2003;" horiz-adv-x="1642" />
<glyph unicode="&#x2004;" horiz-adv-x="547" />
<glyph unicode="&#x2005;" horiz-adv-x="410" />
<glyph unicode="&#x2006;" horiz-adv-x="273" />
<glyph unicode="&#x2007;" horiz-adv-x="273" />
<glyph unicode="&#x2008;" horiz-adv-x="205" />
<glyph unicode="&#x2009;" horiz-adv-x="328" />
<glyph unicode="&#x200a;" horiz-adv-x="91" />
<glyph unicode="&#x2010;" horiz-adv-x="854" d="M82 446v263h690v-263h-690z" />
<glyph unicode="&#x2011;" horiz-adv-x="854" d="M82 446v263h690v-263h-690z" />
<glyph unicode="&#x2012;" horiz-adv-x="854" d="M82 446v263h690v-263h-690z" />
<glyph unicode="&#x2013;" horiz-adv-x="1009" d="M63 315v260h883v-260h-883z" />
<glyph unicode="&#x2014;" horiz-adv-x="1413" d="M63 301v260h1287v-260h-1287z" />
<glyph unicode="&#x2018;" horiz-adv-x="430" d="M82 1087q0 56 37 93q11 12 68 55t108 80l51 37q2 -191 2 -265q0 -55 -39 -94t-94 -39t-94 39t-39 94z" />
<glyph unicode="&#x2019;" horiz-adv-x="430" d="M82 1241q0 55 39 94t94 39t94 -39t39 -94t-37 -92q-11 -11 -68 -53.5t-108 -79.5l-51 -37q-2 188 -2 262z" />
<glyph unicode="&#x201a;" horiz-adv-x="393" d="M63 129q0 55 39 94t95 39q55 0 94 -39t39 -94t-37 -92q-11 -12 -68 -55t-108 -80l-51 -37q-3 190 -3 264z" />
<glyph unicode="&#x201c;" horiz-adv-x="761" d="M82 1087q0 56 37 93q11 12 68 55t108 80l51 37q2 -191 2 -265q0 -55 -39 -94t-94 -39t-94 39t-39 94zM414 1087q0 57 39 93q11 12 67.5 55t107.5 80l50 37q2 -191 2 -265q0 -55 -39 -94t-94 -39q-54 0 -93.5 39t-39.5 94z" />
<glyph unicode="&#x201d;" horiz-adv-x="761" d="M82 1241q0 55 39 94t94 39t94 -39t39 -94t-37 -92q-11 -11 -68 -53.5t-108 -79.5l-51 -37q-2 188 -2 262zM414 1241q0 55 39.5 94t93.5 39q55 0 94 -39t39 -94t-37 -92q-11 -11 -67.5 -53.5t-107.5 -79.5l-50 -37q-4 188 -4 262z" />
<glyph unicode="&#x201e;" horiz-adv-x="743" d="M63 129q0 55 39 94t95 39q55 0 94 -39t39 -94t-37 -92q-11 -12 -68 -55t-108 -80l-51 -37q-3 190 -3 264zM414 129q0 55 39 94t94 39q54 0 93.5 -39t39.5 -94q0 -56 -39 -92q-11 -12 -67.5 -55t-107.5 -80l-50 -37q-2 190 -2 264z" />
<glyph unicode="&#x2022;" horiz-adv-x="694" d="M63 494q0 117 83.5 199.5t201.5 82.5q117 0 200 -82.5t83 -199.5q0 -118 -83 -201.5t-200 -83.5q-118 0 -201.5 83.5t-83.5 201.5z" />
<glyph unicode="&#x2026;" horiz-adv-x="1075" d="M61 129q0 55 39 94t95 39q55 0 94 -39t39 -94t-39 -94t-94 -39q-56 0 -95 39t-39 94zM406 131q0 55 39 94t94 39t94 -39t39 -94t-39 -94t-94 -39t-94 39t-39 94zM748 131q0 55 39 94t94 39t94 -39t39 -94t-39 -94t-94 -39t-94 39t-39 94z" />
<glyph unicode="&#x202f;" horiz-adv-x="328" />
<glyph unicode="&#x2039;" horiz-adv-x="514" d="M63 365q0 67 25.5 126t63.5 95q13 12 46.5 44.5t55.5 52t27 19.5l170 -170q-86 -77 -112 -108l-3 -2q-29 -29 -29 -51q0 -19 25 -52l119 -122q0 -2 -48.5 -46.5t-96.5 -88.5l-48 -44l-96 109q-99 107 -99 238z" />
<glyph unicode="&#x203a;" horiz-adv-x="514" d="M63 180q115 102 115 111q29 29 29 51q0 28 -23 51l-121 123l193 176l98 -108q97 -108 97 -238q0 -68 -25 -126.5t-64 -92.5l-129 -117z" />
<glyph unicode="&#x205f;" horiz-adv-x="410" />
<glyph unicode="&#x20ac;" horiz-adv-x="991" d="M0 338v260h104q43 155 172 254.5t293 99.5q98 0 186 -37.5t154 -103.5q-29 -35 -73.5 -80.5t-74.5 -73.5l-30 -28q-69 69 -162 69q-59 0 -108 -26.5t-80 -73.5h289v-260h-287q32 -44 80.5 -70t105.5 -26q98 0 166 65l130 -130q43 -46 42 -50q-142 -139 -338 -139 q-164 0 -292 98.5t-171 251.5h-106z" />
<glyph unicode="&#xe000;" horiz-adv-x="942" d="M0 0v942h942v-942h-942z" />
</font>
</defs>
</svg>
