<?xml version="1.0" encoding="utf-8"?>
<!-- Generator: Adobe Illustrator 17.0.0, SVG Export Plug-In . SVG Version: 6.00 Build 0)  -->
<!DOCTYPE svg PUBLIC "-//W3C//DTD SVG 1.1//EN" "http://www.w3.org/Graphics/SVG/1.1/DTD/svg11.dtd">
<svg version="1.1" xmlns="http://www.w3.org/2000/svg" xmlns:xlink="http://www.w3.org/1999/xlink" x="0px" y="0px" width="3840px"
	 height="3154.358px" viewBox="0 0 3840 3154.358" enable-background="new 0 0 3840 3154.358" xml:space="preserve">
<g id="Layer_2" display="none">
	<g display="inline">
		<rect fill="#005387" width="3840" height="2880"/>
	</g>
	<g display="inline">
		<rect fill="#FFE3A6" width="3840" height="2880"/>
	</g>
</g>
<g id="Layer_1">
	<g>
		<rect x="-1910" y="3" fill="#FFE3A6" width="1536" height="2048"/>
	</g>
	
		<rect x="913.175" y="778.232" transform="matrix(0.7071 -0.7071 0.7071 0.7071 -1114.4568 1433.927)" fill="#005387" width="521" height="2568"/>
	<polygon fill="#B11116" points="2353.222,1062.721 1998.416,1410.956 994.736,448.764 1363.138,80.361 	"/>
	<g>
		<path d="M3411.697,0.48L2421.747,990.43L1431.798,0.48L3411.697,0.48z"/>
	</g>
	
		<text transform="matrix(1 0 0 1 1595.7167 98.369)" display="none" fill="#FFCC32" font-family="'P22Bayer-Universal'" font-size="120">About</text>
	
		<text transform="matrix(1 0 0 1 2272.9775 101.1273)" display="none" fill="#FFCC32" font-family="'P22Bayer-Universal'" font-size="120">blog</text>
	
		<text transform="matrix(1 0 0 1 2896.4036 95.6102)" display="none" fill="#FFCC32" font-family="'P22Bayer-Universal'" font-size="120">History</text>
	<path display="none" fill="#F4EAD7" fill-opacity="0.7" d="M3477,2830c-49.598,50.026-1903.351,50-1942,0
		c-55.063-71.235-44.107-1809.953,0-1860c43.744-49.635,1892.375-43.743,1942,0C3522.025,1009.688,3515.648,2791.018,3477,2830z"/>
	<g display="none">
		<g display="inline">
			<defs>
				<rect id="SVGID_5_" x="1561.976" y="987.281" width="400" height="400"/>
			</defs>
			<clipPath id="SVGID_6_">
				<use xlink:href="#SVGID_5_"  overflow="visible"/>
			</clipPath>
			<polygon clip-path="url(#SVGID_6_)" fill="#231F20" points="1745.092,1175.079 1735.173,1165.224 1715.645,1184.877 
				1696.169,1165.524 1681.295,1180.493 1680.392,1179.596 1715.873,1143.887 1746.171,1173.992 			"/>
			<path clip-path="url(#SVGID_6_)" fill="#231F20" d="M1801.024,1186.581l33.542,33.33l-8.061,8.112l20.74,20.608l-17.376,17.487
				l-20.923-20.79l-16.128,16.232l-2.342-2.327l31.535-31.737l-16.232-16.129l-6.273,6.314l-4.868-4.837l6.456-6.497l-10.278-10.213
				l-7.17,7.217l-2.165-1.786l16.486-16.591l-87.634-87.078l7.171-7.217l89.976,89.405L1801.024,1186.581z M1778.361,1225.376
				l21.145-7.696l-4.868-4.837l-18.479,6.77"/>
			<g clip-path="url(#SVGID_6_)">
				
					<text transform="matrix(0.9786 -0.206 0.206 0.9786 1721.4957 1077.2578)" fill="#231F20" font-family="'Bauhaus'" font-size="60.2562">L</text>
			</g>
			<g clip-path="url(#SVGID_6_)">
				
					<text transform="matrix(1 4.400000e-04 -4.400000e-04 1 1742.1196 1072.349)" fill="#231F20" font-family="'Bauhaus'" font-size="60.2566">u</text>
			</g>
			<g clip-path="url(#SVGID_6_)">
				
					<text transform="matrix(0.9779 0.2093 -0.2093 0.9779 1770.4319 1072.5243)" fill="#231F20" font-family="'Bauhaus'" font-size="60.2562">c</text>
			</g>
			<g clip-path="url(#SVGID_6_)">
				
					<text transform="matrix(0.9087 0.4175 -0.4175 0.9087 1791.3066 1076.1681)" fill="#231F20" font-family="'Bauhaus'" font-size="60.2563">a</text>
			</g>
			<g clip-path="url(#SVGID_6_)">
				
					<text transform="matrix(0.7906 0.6123 -0.6123 0.7906 1819.7972 1089.4482)" fill="#231F20" font-family="'Bauhaus'" font-size="60.2563">s</text>
			</g>
			<g clip-path="url(#SVGID_6_)">
				
					<text transform="matrix(0.6787 0.7344 -0.7344 0.6787 1839.2704 1104.9081)" fill="#231F20" font-family="'Bauhaus'" font-size="60.2563"> </text>
			</g>
			<g clip-path="url(#SVGID_6_)">
				
					<text transform="matrix(0.525 0.8511 -0.8511 0.525 1850.1581 1115.1121)" fill="#231F20" font-family="'Bauhaus'" font-size="60.2563">R</text>
			</g>
			<g clip-path="url(#SVGID_6_)">
				
					<text transform="matrix(0.2896 0.9572 -0.9572 0.2896 1866.8037 1141.5439)" fill="#231F20" font-family="'Bauhaus'" font-size="60.2563">a</text>
			</g>
			<g clip-path="url(#SVGID_6_)">
				
					<text transform="matrix(0.0602 0.9982 -0.9982 0.0602 1875.7561 1171.6345)" fill="#231F20" font-family="'Bauhaus'" font-size="60.2563">s</text>
			</g>
			<g clip-path="url(#SVGID_6_)">
				
					<text transform="matrix(-0.2127 0.9771 -0.9771 -0.2127 1878.748 1195.7217)" fill="#231F20" font-family="'Bauhaus'" font-size="60.2563">m</text>
			</g>
			<g clip-path="url(#SVGID_6_)">
				
					<text transform="matrix(-0.4766 0.8792 -0.8792 -0.4766 1869.5229 1235.4095)" fill="#231F20" font-family="'Bauhaus'" font-size="60.2563">u</text>
			</g>
			<g clip-path="url(#SVGID_6_)">
				
					<text transform="matrix(-0.6575 0.7535 -0.7535 -0.6575 1855.9886 1260.301)" fill="#231F20" font-family="'Bauhaus'" font-size="60.2563">s</text>
			</g>
			<g clip-path="url(#SVGID_6_)">
				
					<text transform="matrix(-0.7998 0.6003 -0.6003 -0.7998 1840.0839 1278.8494)" fill="#231F20" font-family="'Bauhaus'" font-size="60.2563">s</text>
			</g>
			<g clip-path="url(#SVGID_6_)">
				
					<text transform="matrix(-0.9184 0.3958 -0.3958 -0.9184 1821.0488 1294.0447)" fill="#231F20" font-family="'Bauhaus'" font-size="60.2562">e</text>
			</g>
			<g clip-path="url(#SVGID_6_)">
				
					<text transform="matrix(-0.9876 0.1569 -0.1569 -0.9876 1792.2892 1306.6218)" fill="#231F20" font-family="'Bauhaus'" font-size="60.2564">n</text>
			</g>
			<g clip-path="url(#SVGID_6_)">
				<defs>
					<rect id="SVGID_7_" x="1561.976" y="987.281" width="400" height="400"/>
				</defs>
				<clipPath id="SVGID_8_">
					<use xlink:href="#SVGID_7_"  overflow="visible"/>
				</clipPath>
				<path clip-path="url(#SVGID_8_)" fill="#B11116" d="M1700.826,1108.278l-16.29-24.458
					c-59.522,39.644-75.764,120.695-36.031,180.35l24.588-16.377C1642.898,1201.556,1655.328,1139.318,1700.826,1108.278"/>
			</g>
		</g>
	</g>
	<text transform="matrix(1 0 0 1 2081.2166 1141.422)" display="none" font-family="'P22Bayer-Universal'" font-size="120">Lucas Rasmussen</text>
	<text transform="matrix(1 0 0 1 2070.1831 1334.5183)" display="none" font-family="'P22Bayer-Universal'" font-size="120">State of world affairs</text>
	<rect x="1656.404" y="1455.894" fill="none" width="1721.318" height="1285.471"/>
	<text transform="matrix(1 0 0 1 1656.4043 1525.8936)" display="none"><tspan x="0" y="0" display="inline" font-family="'Quicksand-Regular'" font-size="100">Some very ignorant rant about </tspan><tspan x="0" y="120" display="inline" font-family="'Quicksand-Regular'" font-size="100">the state of humanity and how we </tspan><tspan x="0" y="240" display="inline" font-family="'Quicksand-Regular'" font-size="100">are all doomed to death in a very </tspan><tspan x="0" y="360" display="inline" font-family="'Quicksand-Regular'" font-size="100">short period of time from now. I </tspan><tspan x="0" y="480" display="inline" font-family="'Quicksand-Regular'" font-size="100">don’t believe that anyone else no</tspan><tspan x="1652.272" y="480" display="inline" font-family="'Quicksand-Regular'" font-size="100">-</tspan><tspan x="0" y="600" display="inline" font-family="'Quicksand-Regular'" font-size="100">tices this because I am smarter </tspan><tspan x="0" y="720" display="inline" font-family="'Quicksand-Regular'" font-size="100">than everyone else and I know it.</tspan><tspan x="0" y="960" display="inline" font-family="'Quicksand-Regular'" font-size="100"> = Satirical blog post</tspan></text>
	<rect x="3913" y="-7" fill="#FFE3A6" width="637" height="1144"/>
	<rect x="3911" y="-1" fill="#F4EAD7" width="634" height="196"/>
</g>
<g id="Layer_5">
	<text transform="matrix(1 0 0 1 3936.7603 269.0994)" font-family="'P22Bayer-Universal'" font-size="80">Lucas Rasmussen</text>
	<text transform="matrix(1 0 0 1 3945.0896 346.8015)" font-family="'P22Bayer-Universal'" font-size="60">State of world affairs</text>
	<g>
		<polygon fill="none" points="4504.143,1686.478 3953.737,1682.173 3953.737,396.702 4500.449,396.702 		"/>
		<text transform="matrix(1 0 0 1 3953.7368 424.7018)"><tspan x="0" y="0" font-family="'Quicksand-Regular'" font-size="40">Some</tspan><tspan x="114.079" y="0" font-family="'Quicksand-Regular'" font-size="40" letter-spacing="18"> </tspan><tspan x="144.442" y="0" font-family="'Quicksand-Regular'" font-size="40">very</tspan><tspan x="233.16" y="0" font-family="'Quicksand-Regular'" font-size="40" letter-spacing="18"> </tspan><tspan x="263.521" y="0" font-family="'Quicksand-Regular'" font-size="40">ignorant</tspan><tspan x="433.518" y="0" font-family="'Quicksand-Regular'" font-size="40" letter-spacing="18"> </tspan><tspan x="463.878" y="0" font-family="'Quicksand-Regular'" font-size="40">rant </tspan><tspan x="0" y="48" font-family="'Quicksand-Regular'" font-size="40">about</tspan><tspan x="116.679" y="48" font-family="'Quicksand-Regular'" font-size="40" letter-spacing="3"> </tspan><tspan x="131.955" y="48" font-family="'Quicksand-Regular'" font-size="40">the</tspan><tspan x="196.834" y="48" font-family="'Quicksand-Regular'" font-size="40" letter-spacing="3"> </tspan><tspan x="212.111" y="48" font-family="'Quicksand-Regular'" font-size="40">state</tspan><tspan x="312.91" y="48" font-family="'Quicksand-Regular'" font-size="40" letter-spacing="3"> </tspan><tspan x="328.187" y="48" font-family="'Quicksand-Regular'" font-size="40">of</tspan><tspan x="367.667" y="48" font-family="'Quicksand-Regular'" font-size="40" letter-spacing="3"> </tspan><tspan x="382.943" y="48" font-family="'Quicksand-Regular'" font-size="40">humani</tspan><tspan x="530.54" y="48" font-family="'Quicksand-Regular'" font-size="40">-</tspan><tspan x="0" y="96" font-family="'Quicksand-Regular'" font-size="40">ty</tspan><tspan x="39.52" y="96" font-family="'Quicksand-Regular'" font-size="40" letter-spacing="23"> </tspan><tspan x="75.054" y="96" font-family="'Quicksand-Regular'" font-size="40">and</tspan><tspan x="150.732" y="96" font-family="'Quicksand-Regular'" font-size="40" letter-spacing="23"> </tspan><tspan x="186.268" y="96" font-family="'Quicksand-Regular'" font-size="40">how</tspan><tspan x="270.227" y="96" font-family="'Quicksand-Regular'" font-size="40" letter-spacing="23"> </tspan><tspan x="305.764" y="96" font-family="'Quicksand-Regular'" font-size="40">we</tspan><tspan x="364.562" y="96" font-family="'Quicksand-Regular'" font-size="40" letter-spacing="23"> </tspan><tspan x="400.1" y="96" font-family="'Quicksand-Regular'" font-size="40">are</tspan><tspan x="466.778" y="96" font-family="'Quicksand-Regular'" font-size="40" letter-spacing="23"> </tspan><tspan x="502.313" y="96" font-family="'Quicksand-Regular'" font-size="40">all </tspan><tspan x="0" y="144" font-family="'Quicksand-Regular'" font-size="40">doomed</tspan><tspan x="165.197" y="144" font-family="'Quicksand-Regular'" font-size="40" letter-spacing="3"> </tspan><tspan x="180.328" y="144" font-family="'Quicksand-Regular'" font-size="40">to</tspan><tspan x="221.328" y="144" font-family="'Quicksand-Regular'" font-size="40" letter-spacing="3"> </tspan><tspan x="236.461" y="144" font-family="'Quicksand-Regular'" font-size="40">death</tspan><tspan x="352.499" y="144" font-family="'Quicksand-Regular'" font-size="40" letter-spacing="3"> </tspan><tspan x="367.63" y="144" font-family="'Quicksand-Regular'" font-size="40">in</tspan><tspan x="403.389" y="144" font-family="'Quicksand-Regular'" font-size="40" letter-spacing="3"> </tspan><tspan x="418.52" y="144" font-family="'Quicksand-Regular'" font-size="40">a</tspan><tspan x="443.279" y="144" font-family="'Quicksand-Regular'" font-size="40" letter-spacing="3"> </tspan><tspan x="458.412" y="144" font-family="'Quicksand-Regular'" font-size="40">very </tspan><tspan x="0" y="192" font-family="'Quicksand-Regular'" font-size="40">short</tspan><tspan x="102.759" y="192" font-family="'Quicksand-Regular'" font-size="40" letter-spacing="10"> </tspan><tspan x="125.099" y="192" font-family="'Quicksand-Regular'" font-size="40">period</tspan><tspan x="256.056" y="192" font-family="'Quicksand-Regular'" font-size="40" letter-spacing="10"> </tspan><tspan x="278.396" y="192" font-family="'Quicksand-Regular'" font-size="40">of</tspan><tspan x="317.876" y="192" font-family="'Quicksand-Regular'" font-size="40" letter-spacing="10"> </tspan><tspan x="340.216" y="192" font-family="'Quicksand-Regular'" font-size="40">time</tspan><tspan x="429.854" y="192" font-family="'Quicksand-Regular'" font-size="40" letter-spacing="10"> </tspan><tspan x="452.194" y="192" font-family="'Quicksand-Regular'" font-size="40">from </tspan><tspan x="0" y="240" font-family="'Quicksand-Regular'" font-size="40">now.</tspan><tspan x="93.159" y="240" font-family="'Quicksand-Regular'" font-size="40" letter-spacing="16"> </tspan><tspan x="122.084" y="240" font-family="'Quicksand-Regular'" font-size="40">I</tspan><tspan x="134.283" y="240" font-family="'Quicksand-Regular'" font-size="40" letter-spacing="16"> </tspan><tspan x="163.207" y="240" font-family="'Quicksand-Regular'" font-size="40">don’t</tspan><tspan x="264.326" y="240" font-family="'Quicksand-Regular'" font-size="40" letter-spacing="16"> </tspan><tspan x="293.251" y="240" font-family="'Quicksand-Regular'" font-size="40">believe</tspan><tspan x="437.207" y="240" font-family="'Quicksand-Regular'" font-size="40" letter-spacing="16"> </tspan><tspan x="466.129" y="240" font-family="'Quicksand-Regular'" font-size="40">that </tspan><tspan x="0" y="288" font-family="'Quicksand-Regular'" font-size="40">anyone</tspan><tspan x="146.678" y="288" font-family="'Quicksand-Regular'" font-size="40" letter-spacing="-1"> </tspan><tspan x="156.766" y="288" font-family="'Quicksand-Regular'" font-size="40">else</tspan><tspan x="235.124" y="288" font-family="'Quicksand-Regular'" font-size="40" letter-spacing="-1"> </tspan><tspan x="245.211" y="288" font-family="'Quicksand-Regular'" font-size="40">notices</tspan><tspan x="388.849" y="288" font-family="'Quicksand-Regular'" font-size="40" letter-spacing="-1"> </tspan><tspan x="398.937" y="288" font-family="'Quicksand-Regular'" font-size="40">this</tspan><tspan x="470.375" y="288" font-family="'Quicksand-Regular'" font-size="40" letter-spacing="-1"> </tspan><tspan x="480.462" y="288" font-family="'Quicksand-Regular'" font-size="40">be</tspan><tspan x="531.221" y="288" font-family="'Quicksand-Regular'" font-size="40">-</tspan><tspan x="0" y="336" font-family="'Quicksand-Regular'" font-size="40">cause</tspan><tspan x="116.158" y="336" font-family="'Quicksand-Regular'" font-size="40" letter-spacing="15"> </tspan><tspan x="143.35" y="336" font-family="'Quicksand-Regular'" font-size="40">I</tspan><tspan x="155.549" y="336" font-family="'Quicksand-Regular'" font-size="40" letter-spacing="15"> </tspan><tspan x="182.742" y="336" font-family="'Quicksand-Regular'" font-size="40">am</tspan><tspan x="245.541" y="336" font-family="'Quicksand-Regular'" font-size="40" letter-spacing="15"> </tspan><tspan x="272.734" y="336" font-family="'Quicksand-Regular'" font-size="40">smarter</tspan><tspan x="430.691" y="336" font-family="'Quicksand-Regular'" font-size="40" letter-spacing="15"> </tspan><tspan x="457.885" y="336" font-family="'Quicksand-Regular'" font-size="40">than </tspan><tspan x="0" y="384" font-family="'Quicksand-Regular'" font-size="40">everyone else and I know it.</tspan><tspan x="0" y="480" font-family="'Quicksand-Regular'" font-size="40"> = Satirical blog post</tspan></text>
		<polygon fill="none" points="4504.143,1686.478 3953.737,1682.173 3953.737,396.702 4500.449,396.702 		"/>
		<text transform="matrix(1 0 0 1 3953.7368 424.7018)"><tspan x="0" y="0" fill="#231F20" font-family="'Quicksand-Regular'" font-size="40">Some</tspan><tspan x="114.079" y="0" fill="#231F20" font-family="'Quicksand-Regular'" font-size="40" letter-spacing="18"> </tspan><tspan x="144.442" y="0" fill="#231F20" font-family="'Quicksand-Regular'" font-size="40">very</tspan><tspan x="233.16" y="0" fill="#231F20" font-family="'Quicksand-Regular'" font-size="40" letter-spacing="18"> </tspan><tspan x="263.521" y="0" fill="#231F20" font-family="'Quicksand-Regular'" font-size="40">ignorant</tspan><tspan x="433.518" y="0" fill="#231F20" font-family="'Quicksand-Regular'" font-size="40" letter-spacing="18"> </tspan><tspan x="463.878" y="0" fill="#231F20" font-family="'Quicksand-Regular'" font-size="40">rant </tspan><tspan x="0" y="48" fill="#231F20" font-family="'Quicksand-Regular'" font-size="40">about</tspan><tspan x="116.679" y="48" fill="#231F20" font-family="'Quicksand-Regular'" font-size="40" letter-spacing="3"> </tspan><tspan x="131.955" y="48" fill="#231F20" font-family="'Quicksand-Regular'" font-size="40">the</tspan><tspan x="196.834" y="48" fill="#231F20" font-family="'Quicksand-Regular'" font-size="40" letter-spacing="3"> </tspan><tspan x="212.111" y="48" fill="#231F20" font-family="'Quicksand-Regular'" font-size="40">state</tspan><tspan x="312.91" y="48" fill="#231F20" font-family="'Quicksand-Regular'" font-size="40" letter-spacing="3"> </tspan><tspan x="328.187" y="48" fill="#231F20" font-family="'Quicksand-Regular'" font-size="40">of</tspan><tspan x="367.667" y="48" fill="#231F20" font-family="'Quicksand-Regular'" font-size="40" letter-spacing="3"> </tspan><tspan x="382.943" y="48" fill="#231F20" font-family="'Quicksand-Regular'" font-size="40">humani</tspan><tspan x="530.54" y="48" fill="#231F20" font-family="'Quicksand-Regular'" font-size="40">-</tspan><tspan x="0" y="96" fill="#231F20" font-family="'Quicksand-Regular'" font-size="40">ty</tspan><tspan x="39.52" y="96" fill="#231F20" font-family="'Quicksand-Regular'" font-size="40" letter-spacing="23"> </tspan><tspan x="75.054" y="96" fill="#231F20" font-family="'Quicksand-Regular'" font-size="40">and</tspan><tspan x="150.732" y="96" fill="#231F20" font-family="'Quicksand-Regular'" font-size="40" letter-spacing="23"> </tspan><tspan x="186.268" y="96" fill="#231F20" font-family="'Quicksand-Regular'" font-size="40">how</tspan><tspan x="270.227" y="96" fill="#231F20" font-family="'Quicksand-Regular'" font-size="40" letter-spacing="23"> </tspan><tspan x="305.764" y="96" fill="#231F20" font-family="'Quicksand-Regular'" font-size="40">we</tspan><tspan x="364.562" y="96" fill="#231F20" font-family="'Quicksand-Regular'" font-size="40" letter-spacing="23"> </tspan><tspan x="400.1" y="96" fill="#231F20" font-family="'Quicksand-Regular'" font-size="40">are</tspan><tspan x="466.778" y="96" fill="#231F20" font-family="'Quicksand-Regular'" font-size="40" letter-spacing="23"> </tspan><tspan x="502.313" y="96" fill="#231F20" font-family="'Quicksand-Regular'" font-size="40">all </tspan><tspan x="0" y="144" fill="#231F20" font-family="'Quicksand-Regular'" font-size="40">doomed</tspan><tspan x="165.197" y="144" fill="#231F20" font-family="'Quicksand-Regular'" font-size="40" letter-spacing="3"> </tspan><tspan x="180.328" y="144" fill="#231F20" font-family="'Quicksand-Regular'" font-size="40">to</tspan><tspan x="221.328" y="144" fill="#231F20" font-family="'Quicksand-Regular'" font-size="40" letter-spacing="3"> </tspan><tspan x="236.461" y="144" fill="#231F20" font-family="'Quicksand-Regular'" font-size="40">death</tspan><tspan x="352.499" y="144" fill="#231F20" font-family="'Quicksand-Regular'" font-size="40" letter-spacing="3"> </tspan><tspan x="367.63" y="144" fill="#231F20" font-family="'Quicksand-Regular'" font-size="40">in</tspan><tspan x="403.389" y="144" fill="#231F20" font-family="'Quicksand-Regular'" font-size="40" letter-spacing="3"> </tspan><tspan x="418.52" y="144" fill="#231F20" font-family="'Quicksand-Regular'" font-size="40">a</tspan><tspan x="443.279" y="144" fill="#231F20" font-family="'Quicksand-Regular'" font-size="40" letter-spacing="3"> </tspan><tspan x="458.412" y="144" fill="#231F20" font-family="'Quicksand-Regular'" font-size="40">very </tspan><tspan x="0" y="192" fill="#231F20" font-family="'Quicksand-Regular'" font-size="40">short</tspan><tspan x="102.759" y="192" fill="#231F20" font-family="'Quicksand-Regular'" font-size="40" letter-spacing="10"> </tspan><tspan x="125.099" y="192" fill="#231F20" font-family="'Quicksand-Regular'" font-size="40">period</tspan><tspan x="256.056" y="192" fill="#231F20" font-family="'Quicksand-Regular'" font-size="40" letter-spacing="10"> </tspan><tspan x="278.396" y="192" fill="#231F20" font-family="'Quicksand-Regular'" font-size="40">of</tspan><tspan x="317.876" y="192" fill="#231F20" font-family="'Quicksand-Regular'" font-size="40" letter-spacing="10"> </tspan><tspan x="340.216" y="192" fill="#231F20" font-family="'Quicksand-Regular'" font-size="40">time</tspan><tspan x="429.854" y="192" fill="#231F20" font-family="'Quicksand-Regular'" font-size="40" letter-spacing="10"> </tspan><tspan x="452.194" y="192" fill="#231F20" font-family="'Quicksand-Regular'" font-size="40">from </tspan><tspan x="0" y="240" fill="#231F20" font-family="'Quicksand-Regular'" font-size="40">now.</tspan><tspan x="93.159" y="240" fill="#231F20" font-family="'Quicksand-Regular'" font-size="40" letter-spacing="16"> </tspan><tspan x="122.084" y="240" fill="#231F20" font-family="'Quicksand-Regular'" font-size="40">I</tspan><tspan x="134.283" y="240" fill="#231F20" font-family="'Quicksand-Regular'" font-size="40" letter-spacing="16"> </tspan><tspan x="163.207" y="240" fill="#231F20" font-family="'Quicksand-Regular'" font-size="40">don’t</tspan><tspan x="264.326" y="240" fill="#231F20" font-family="'Quicksand-Regular'" font-size="40" letter-spacing="16"> </tspan><tspan x="293.251" y="240" fill="#231F20" font-family="'Quicksand-Regular'" font-size="40">believe</tspan><tspan x="437.207" y="240" fill="#231F20" font-family="'Quicksand-Regular'" font-size="40" letter-spacing="16"> </tspan><tspan x="466.129" y="240" fill="#231F20" font-family="'Quicksand-Regular'" font-size="40">that </tspan><tspan x="0" y="288" fill="#231F20" font-family="'Quicksand-Regular'" font-size="40">anyone</tspan><tspan x="146.678" y="288" fill="#231F20" font-family="'Quicksand-Regular'" font-size="40" letter-spacing="-1"> </tspan><tspan x="156.766" y="288" fill="#231F20" font-family="'Quicksand-Regular'" font-size="40">else</tspan><tspan x="235.124" y="288" fill="#231F20" font-family="'Quicksand-Regular'" font-size="40" letter-spacing="-1"> </tspan><tspan x="245.211" y="288" fill="#231F20" font-family="'Quicksand-Regular'" font-size="40">notices</tspan><tspan x="388.849" y="288" fill="#231F20" font-family="'Quicksand-Regular'" font-size="40" letter-spacing="-1"> </tspan><tspan x="398.937" y="288" fill="#231F20" font-family="'Quicksand-Regular'" font-size="40">this</tspan><tspan x="470.375" y="288" fill="#231F20" font-family="'Quicksand-Regular'" font-size="40" letter-spacing="-1"> </tspan><tspan x="480.462" y="288" fill="#231F20" font-family="'Quicksand-Regular'" font-size="40">be</tspan><tspan x="531.221" y="288" fill="#231F20" font-family="'Quicksand-Regular'" font-size="40">-</tspan><tspan x="0" y="336" fill="#231F20" font-family="'Quicksand-Regular'" font-size="40">cause</tspan><tspan x="116.158" y="336" fill="#231F20" font-family="'Quicksand-Regular'" font-size="40" letter-spacing="15"> </tspan><tspan x="143.35" y="336" fill="#231F20" font-family="'Quicksand-Regular'" font-size="40">I</tspan><tspan x="155.549" y="336" fill="#231F20" font-family="'Quicksand-Regular'" font-size="40" letter-spacing="15"> </tspan><tspan x="182.742" y="336" fill="#231F20" font-family="'Quicksand-Regular'" font-size="40">am</tspan><tspan x="245.541" y="336" fill="#231F20" font-family="'Quicksand-Regular'" font-size="40" letter-spacing="15"> </tspan><tspan x="272.734" y="336" fill="#231F20" font-family="'Quicksand-Regular'" font-size="40">smarter</tspan><tspan x="430.691" y="336" fill="#231F20" font-family="'Quicksand-Regular'" font-size="40" letter-spacing="15"> </tspan><tspan x="457.885" y="336" fill="#231F20" font-family="'Quicksand-Regular'" font-size="40">than </tspan><tspan x="0" y="384" fill="#231F20" font-family="'Quicksand-Regular'" font-size="40">everyone else and I know it.</tspan><tspan x="0" y="480" fill="#231F20" font-family="'Quicksand-Regular'" font-size="40"> = Satirical blog post</tspan></text>
	</g>
	<text transform="matrix(1 0 0 1 4381.3662 142.7171)" fill="#B11116" font-family="'P22Bauhaus-Extras'" font-size="110">c</text>
</g>
<g id="Nav">
	<rect x="3912.5" y="195.5" fill="#F4EAD7" stroke="#F26522" stroke-miterlimit="10" width="632" height="116"/>
	<rect x="3912.5" y="426.5" fill="#F4EAD7" stroke="#F26522" stroke-miterlimit="10" width="632" height="116"/>
	<rect x="3912.5" y="310.5" fill="#F4EAD7" stroke="#F26522" stroke-miterlimit="10" width="632" height="116"/>
	
		<text transform="matrix(1 0 0 1 4111.5596 282.3094)" fill="#005387" stroke="#005387" stroke-miterlimit="10" font-family="'P22Bayer-Universal'" font-size="83">About</text>
	
		<text transform="matrix(1 0 0 1 4147.9409 399.3741)" fill="#005387" stroke="#005387" stroke-miterlimit="10" font-family="'P22Bayer-Universal'" font-size="83">blog</text>
	
		<text transform="matrix(1 0 0 1 4095.0229 510.5194)" fill="#005387" stroke="#005387" stroke-miterlimit="10" font-family="'P22Bayer-Universal'" font-size="83">history</text>
	<text transform="matrix(1 0 0 1 3942.0342 406.7614)" fill="#F26522" font-family="'P22Bauhaus-Extras'" font-size="83">D</text>
	<text transform="matrix(1 0 0 1 3942.0339 517.9068)" fill="#F26522" font-family="'P22Bauhaus-Extras'" font-size="83">D</text>
	<text transform="matrix(1 0 0 1 3942.0342 289.6968)" fill="#F26522" font-family="'P22Bauhaus-Extras'" font-size="83">D</text>
</g>
<g id="Layer_3">
	<g>
		<g>
			<defs>
				<rect id="SVGID_9_" x="-1898.297" y="15.957" width="500" height="500"/>
			</defs>
			<clipPath id="SVGID_10_">
				<use xlink:href="#SVGID_9_"  overflow="visible"/>
			</clipPath>
			<polygon clip-path="url(#SVGID_10_)" fill="#231F20" points="-1669.403,250.705 -1681.801,238.386 -1706.21,262.952 
				-1730.556,238.761 -1749.148,257.472 -1750.278,256.351 -1705.926,211.715 -1668.053,249.347 			"/>
			<path clip-path="url(#SVGID_10_)" fill="#231F20" d="M-1599.487,265.082l41.928,41.662l-10.076,10.14l25.924,25.76l-21.72,21.859
				l-26.154-25.988l-20.16,20.29l-2.928-2.909l39.419-39.671l-20.29-20.161l-7.842,7.892l-6.084-6.046l8.07-8.121l-12.847-12.766
				l-8.963,9.021l-2.706-2.233l20.607-20.739l-109.542-108.847l8.964-9.021l112.47,111.756L-1599.487,265.082z M-1627.816,313.576
				l26.431-9.62l-6.084-6.046l-23.098,8.462"/>
			<g clip-path="url(#SVGID_10_)">
				
					<text transform="matrix(0.9786 -0.206 0.206 0.9786 -1698.9323 128.4412)" fill="#231F20" font-family="'Bauhaus'" font-size="75.3203">L</text>
			</g>
			<g clip-path="url(#SVGID_10_)">
				
					<text transform="matrix(1 4.400000e-04 -4.400000e-04 1 -1673.1326 122.2665)" fill="#231F20" font-family="'Bauhaus'" font-size="75.3204">u</text>
			</g>
			<g clip-path="url(#SVGID_10_)">
				
					<text transform="matrix(0.9779 0.2093 -0.2093 0.9779 -1637.7468 122.4941)" fill="#231F20" font-family="'Bauhaus'" font-size="75.3203">c</text>
			</g>
			<g clip-path="url(#SVGID_10_)">
				
					<text transform="matrix(0.9087 0.4175 -0.4175 0.9087 -1611.6433 127.0661)" fill="#231F20" font-family="'Bauhaus'" font-size="75.3204">a</text>
			</g>
			<g clip-path="url(#SVGID_10_)">
				
					<text transform="matrix(0.7906 0.6123 -0.6123 0.7906 -1576.0117 143.6524)" fill="#231F20" font-family="'Bauhaus'" font-size="75.3203">s</text>
			</g>
			<g clip-path="url(#SVGID_10_)">
				
					<text transform="matrix(0.6787 0.7344 -0.7344 0.6787 -1551.5524 162.9742)" fill="#231F20" font-family="'Bauhaus'" font-size="75.3203"> </text>
			</g>
			<g clip-path="url(#SVGID_10_)">
				
					<text transform="matrix(0.525 0.8511 -0.8511 0.525 -1538.0918 175.7344)" fill="#231F20" font-family="'Bauhaus'" font-size="75.3204">R</text>
			</g>
			<g clip-path="url(#SVGID_10_)">
				
					<text transform="matrix(0.2896 0.9572 -0.9572 0.2896 -1517.2695 208.7682)" fill="#231F20" font-family="'Bauhaus'" font-size="75.3203">a</text>
			</g>
			<g clip-path="url(#SVGID_10_)">
				
					<text transform="matrix(0.0602 0.9982 -0.9982 0.0602 -1506.0786 246.3799)" fill="#231F20" font-family="'Bauhaus'" font-size="75.3203">s</text>
			</g>
			<g clip-path="url(#SVGID_10_)">
				
					<text transform="matrix(-0.2127 0.9771 -0.9771 -0.2127 -1502.3552 276.4705)" fill="#231F20" font-family="'Bauhaus'" font-size="75.3204">m</text>
			</g>
			<g clip-path="url(#SVGID_10_)">
				
					<text transform="matrix(-0.4766 0.8792 -0.8792 -0.4766 -1513.8998 326.1442)" fill="#231F20" font-family="'Bauhaus'" font-size="75.3203">u</text>
			</g>
			<g clip-path="url(#SVGID_10_)">
				
					<text transform="matrix(-0.6575 0.7535 -0.7535 -0.6575 -1530.7588 357.2223)" fill="#231F20" font-family="'Bauhaus'" font-size="75.3204">s</text>
			</g>
			<g clip-path="url(#SVGID_10_)">
				
					<text transform="matrix(-0.7998 0.6003 -0.6003 -0.7998 -1550.6667 380.4521)" fill="#231F20" font-family="'Bauhaus'" font-size="75.3203">s</text>
			</g>
			<g clip-path="url(#SVGID_10_)">
				
					<text transform="matrix(-0.9184 0.3958 -0.3958 -0.9184 -1574.4774 399.4365)" fill="#231F20" font-family="'Bauhaus'" font-size="75.3203">e</text>
			</g>
			<g clip-path="url(#SVGID_10_)">
				
					<text transform="matrix(-0.9876 0.1569 -0.1569 -0.9876 -1610.4143 415.0911)" fill="#231F20" font-family="'Bauhaus'" font-size="75.3204">n</text>
			</g>
			<g clip-path="url(#SVGID_10_)">
				<defs>
					<rect id="SVGID_11_" x="-1898.297" y="15.957" width="500" height="500"/>
				</defs>
				<clipPath id="SVGID_12_">
					<use xlink:href="#SVGID_11_"  overflow="visible"/>
				</clipPath>
				<path clip-path="url(#SVGID_12_)" fill="#B11116" d="M-1724.734,167.204l-20.363-30.573
					c-74.403,49.555-94.705,150.869-45.039,225.438l30.734-20.471C-1797.145,283.8-1781.607,206.003-1724.734,167.204"/>
			</g>
		</g>
	</g>
	
		<rect x="-1370.224" y="487.147" transform="matrix(0.7071 -0.7071 0.7071 0.7071 -1101.3608 -586.6635)" fill="#005387" width="222.757" height="1097.963"/>
	<polygon fill="#B11116" points="-754.524,603.782 -906.223,752.672 -1335.352,341.281 -1177.839,183.768 	"/>
	<g>
		<path d="M-263.967,129.892l-450,450l-450-450H-263.967z"/>
	</g>
	<text transform="matrix(1 0 0 1 -1315.6527 91.6337)" fill="#005387" font-family="'P22Bayer-Universal'" font-size="100">About</text>
	<text transform="matrix(1 0 0 1 -972.1628 91.6336)" fill="#005387" font-family="'P22Bayer-Universal'" font-size="100">blog</text>
	<text transform="matrix(1 0 0 1 -724.4015 91.6339)" fill="#005387" font-family="'P22Bayer-Universal'" font-size="100">History</text>
	<path fill="#F4EAD7" fill-opacity="0.9" d="M-408.187,1856.121c-34.533,34.832-1429.179,38.594-1456.089,3.781
		c-38.338-49.598-30.71-1260.21,0-1295.056c30.457-34.559,1421.537-35.687,1456.089-5.23
		C-376.837,587.249-381.277,1828.979-408.187,1856.121z"/>
	<g>
		<g>
			<defs>
				<rect id="SVGID_1_" x="-1787.492" y="578.878" width="278.507" height="278.507"/>
			</defs>
			<clipPath id="SVGID_13_">
				<use xlink:href="#SVGID_1_"  overflow="visible"/>
			</clipPath>
			<polygon clip-path="url(#SVGID_13_)" fill="#231F20" points="-1659.995,709.635 -1666.901,702.773 -1680.498,716.457 
				-1694.059,702.982 -1704.415,713.405 -1705.044,712.78 -1680.339,687.917 -1659.244,708.879 			"/>
			<path clip-path="url(#SVGID_13_)" fill="#231F20" d="M-1621.051,717.643l23.354,23.206l-5.612,5.648l14.44,14.349l-12.099,12.176
				l-14.568-14.475l-11.23,11.302l-1.631-1.62l21.957-22.097l-11.302-11.23l-4.368,4.396l-3.389-3.368l4.495-4.524l-7.156-7.111
				l-4.993,5.025l-1.507-1.244l11.479-11.552l-61.016-60.629l4.993-5.025l62.647,62.249L-1621.051,717.643z M-1636.831,744.655
				l14.722-5.358l-3.389-3.368l-12.866,4.714"/>
			<g clip-path="url(#SVGID_13_)">
				
					<text transform="matrix(0.9786 -0.206 0.206 0.9786 -1676.4185 641.5336)" fill="#231F20" font-family="'Bauhaus'" font-size="41.9544">L</text>
			</g>
			<g clip-path="url(#SVGID_13_)">
				
					<text transform="matrix(1 4.400000e-04 -4.400000e-04 1 -1662.0641 638.1098)" fill="#231F20" font-family="'Bauhaus'" font-size="41.9547">u</text>
			</g>
			<g clip-path="url(#SVGID_13_)">
				
					<text transform="matrix(0.9779 0.2093 -0.2093 0.9779 -1642.3552 638.2377)" fill="#231F20" font-family="'Bauhaus'" font-size="41.9544">c</text>
			</g>
			<g clip-path="url(#SVGID_13_)">
				
					<text transform="matrix(0.9087 0.4175 -0.4175 0.9087 -1627.8164 640.7701)" fill="#231F20" font-family="'Bauhaus'" font-size="41.9545">a</text>
			</g>
			<g clip-path="url(#SVGID_13_)">
				
					<text transform="matrix(0.7906 0.6123 -0.6123 0.7906 -1607.9843 650.0123)" fill="#231F20" font-family="'Bauhaus'" font-size="41.9544">s</text>
			</g>
			<g clip-path="url(#SVGID_13_)">
				
					<text transform="matrix(0.6787 0.7344 -0.7344 0.6787 -1594.4288 660.7715)" fill="#231F20" font-family="'Bauhaus'" font-size="41.9544"> </text>
			</g>
			<g clip-path="url(#SVGID_13_)">
				
					<text transform="matrix(0.525 0.8511 -0.8511 0.525 -1586.8425 667.8872)" fill="#231F20" font-family="'Bauhaus'" font-size="41.9544">R</text>
			</g>
			<g clip-path="url(#SVGID_13_)">
				
					<text transform="matrix(0.2896 0.9572 -0.9572 0.2896 -1575.2563 686.2884)" fill="#231F20" font-family="'Bauhaus'" font-size="41.9544">a</text>
			</g>
			<g clip-path="url(#SVGID_13_)">
				
					<text transform="matrix(0.0602 0.9982 -0.9982 0.0602 -1569.0232 707.239)" fill="#231F20" font-family="'Bauhaus'" font-size="41.9544">s</text>
			</g>
			<g clip-path="url(#SVGID_13_)">
				
					<text transform="matrix(-0.2127 0.9771 -0.9771 -0.2127 -1566.9426 724.0183)" fill="#231F20" font-family="'Bauhaus'" font-size="41.9545">m</text>
			</g>
			<g clip-path="url(#SVGID_13_)">
				
					<text transform="matrix(-0.4766 0.8792 -0.8792 -0.4766 -1573.3458 751.6483)" fill="#231F20" font-family="'Bauhaus'" font-size="41.9544">u</text>
			</g>
			<g clip-path="url(#SVGID_13_)">
				
					<text transform="matrix(-0.6575 0.7535 -0.7535 -0.6575 -1582.7869 768.9692)" fill="#231F20" font-family="'Bauhaus'" font-size="41.9544">s</text>
			</g>
			<g clip-path="url(#SVGID_13_)">
				
					<text transform="matrix(-0.7998 0.6003 -0.6003 -0.7998 -1593.8451 781.8856)" fill="#231F20" font-family="'Bauhaus'" font-size="41.9544">s</text>
			</g>
			<g clip-path="url(#SVGID_13_)">
				
					<text transform="matrix(-0.9184 0.3958 -0.3958 -0.9184 -1607.1002 792.4721)" fill="#231F20" font-family="'Bauhaus'" font-size="41.9544">e</text>
			</g>
			<g clip-path="url(#SVGID_13_)">
				
					<text transform="matrix(-0.9876 0.1569 -0.1569 -0.9876 -1627.1448 801.2285)" fill="#231F20" font-family="'Bauhaus'" font-size="41.9545">n</text>
			</g>
			<g clip-path="url(#SVGID_13_)">
				<defs>
					<rect id="SVGID_2_" x="-1787.492" y="578.878" width="278.507" height="278.507"/>
				</defs>
				<clipPath id="SVGID_14_">
					<use xlink:href="#SVGID_2_"  overflow="visible"/>
				</clipPath>
				<path clip-path="url(#SVGID_14_)" fill="#B11116" d="M-1690.816,663.124l-11.342-17.029
					c-41.443,27.603-52.752,84.036-25.087,125.572l17.12-11.402C-1731.149,728.07-1722.495,684.736-1690.816,663.124"/>
			</g>
		</g>
	</g>
	<text transform="matrix(1 0 0 1 -1442.0239 688.7777)" font-family="'P22Bayer-Universal'" font-size="100">Lucas Rasmussen</text>
	<text transform="matrix(1 0 0 1 -1439.3682 807.1647)" font-family="'P22Bayer-Universal'" font-size="100">State of world affairs</text>
	<polygon fill="none" points="-452.323,1828.535 -1826.067,1823.018 -1821.052,833.435 -457.84,835.468 	"/>
	<text transform="matrix(1 0 0 1 -1821.0806 889.4347)"><tspan x="0" y="0" font-family="'Quicksand-Light'" font-size="80">Some very ignorant rant about </tspan><tspan x="-0.507" y="100" font-family="'Quicksand-Light'" font-size="80">the state of humanity and how </tspan><tspan x="-1.013" y="200" font-family="'Quicksand-Light'" font-size="80">we are all doomed to death in a </tspan><tspan x="-1.521" y="300" font-family="'Quicksand-Light'" font-size="80">very short period of time from </tspan><tspan x="-2.027" y="400" font-family="'Quicksand-Light'" font-size="80">now. I don’t believe that anyone </tspan><tspan x="-2.534" y="500" font-family="'Quicksand-Light'" font-size="80">else notices this because I am </tspan><tspan x="-3.041" y="600" font-family="'Quicksand-Light'" font-size="80">smarter than everyone else and I </tspan><tspan x="-3.547" y="700" font-family="'Quicksand-Light'" font-size="80">know it.</tspan><tspan x="-4.571" y="902" font-family="'Quicksand-Light'" font-size="80"> = Satirical blog post</tspan></text>
	<g>
		<g>
			<defs>
				<rect id="SVGID_3_" x="3892.867" y="-9.711" width="227" height="227"/>
			</defs>
			<clipPath id="SVGID_15_">
				<use xlink:href="#SVGID_3_"  overflow="visible"/>
			</clipPath>
			<polygon clip-path="url(#SVGID_15_)" fill="#231F20" points="3996.785,96.864 3991.156,91.272 3980.074,102.424 3969.021,91.442 
				3960.58,99.937 3960.067,99.428 3980.203,79.163 3997.397,96.248 			"/>
			<path clip-path="url(#SVGID_15_)" fill="#231F20" d="M4028.526,103.391l19.035,18.915l-4.575,4.604l11.77,11.695l-9.861,9.924
				l-11.874-11.798l-9.153,9.211l-1.329-1.321l17.896-18.011l-9.211-9.153l-3.56,3.583l-2.762-2.745l3.664-3.687l-5.833-5.796
				l-4.069,4.095l-1.228-1.014l9.356-9.416l-49.732-49.416l4.069-4.095l51.061,50.737L4028.526,103.391z M4015.665,125.408l12-4.367
				l-2.762-2.745l-10.487,3.842"/>
			<g clip-path="url(#SVGID_15_)">
				
					<text transform="matrix(0.9786 -0.206 0.206 0.9786 3983.429 41.332)" fill="#231F20" font-family="'Bauhaus'" font-size="34.1954">L</text>
			</g>
			<g clip-path="url(#SVGID_15_)">
				
					<text transform="matrix(1 4.400000e-04 -4.400000e-04 1 3995.1653 38.6174)" fill="#231F20" font-family="'Bauhaus'" font-size="34.1958">u</text>
			</g>
			<g clip-path="url(#SVGID_15_)">
				
					<text transform="matrix(0.9779 0.2093 -0.2093 0.9779 4011.1909 38.6796)" fill="#231F20" font-family="'Bauhaus'" font-size="34.1954">c</text>
			</g>
			<g clip-path="url(#SVGID_15_)">
				
					<text transform="matrix(0.9087 0.4175 -0.4175 0.9087 4023.0146 40.7283)" fill="#231F20" font-family="'Bauhaus'" font-size="34.1954">a</text>
			</g>
			<g clip-path="url(#SVGID_15_)">
				
					<text transform="matrix(0.7906 0.6123 -0.6123 0.7906 4039.167 48.2783)" fill="#231F20" font-family="'Bauhaus'" font-size="34.1954">s</text>
			</g>
			<g clip-path="url(#SVGID_15_)">
				
					<text transform="matrix(0.6787 0.7344 -0.7344 0.6787 4050.1973 57.0584)" fill="#231F20" font-family="'Bauhaus'" font-size="34.1954"> </text>
			</g>
			<g clip-path="url(#SVGID_15_)">
				
					<text transform="matrix(0.525 0.8511 -0.8511 0.525 4056.4258 62.8345)" fill="#231F20" font-family="'Bauhaus'" font-size="34.1954">R</text>
			</g>
			<g clip-path="url(#SVGID_15_)">
				
					<text transform="matrix(0.2896 0.9572 -0.9572 0.2896 4065.8604 77.851)" fill="#231F20" font-family="'Bauhaus'" font-size="34.1954">a</text>
			</g>
			<g clip-path="url(#SVGID_15_)">
				
					<text transform="matrix(0.0602 0.9982 -0.9982 0.0602 4070.9443 94.9266)" fill="#231F20" font-family="'Bauhaus'" font-size="34.1954">s</text>
			</g>
			<g clip-path="url(#SVGID_15_)">
				
					<text transform="matrix(-0.2127 0.9771 -0.9771 -0.2127 4072.6633 108.6142)" fill="#231F20" font-family="'Bauhaus'" font-size="34.1955">m</text>
			</g>
			<g clip-path="url(#SVGID_15_)">
				
					<text transform="matrix(-0.4766 0.8792 -0.8792 -0.4766 4067.4255 131.068)" fill="#231F20" font-family="'Bauhaus'" font-size="34.1954">u</text>
			</g>
			<g clip-path="url(#SVGID_15_)">
				
					<text transform="matrix(-0.6575 0.7535 -0.7535 -0.6575 4059.698 145.2435)" fill="#231F20" font-family="'Bauhaus'" font-size="34.1954">s</text>
			</g>
			<g clip-path="url(#SVGID_15_)">
				
					<text transform="matrix(-0.7998 0.6003 -0.6003 -0.7998 4050.6931 155.7257)" fill="#231F20" font-family="'Bauhaus'" font-size="34.1954">s</text>
			</g>
			<g clip-path="url(#SVGID_15_)">
				
					<text transform="matrix(-0.9184 0.3958 -0.3958 -0.9184 4039.9189 164.3618)" fill="#231F20" font-family="'Bauhaus'" font-size="34.1954">e</text>
			</g>
			<g clip-path="url(#SVGID_15_)">
				
					<text transform="matrix(-0.9876 0.1569 -0.1569 -0.9876 4023.5884 171.5544)" fill="#231F20" font-family="'Bauhaus'" font-size="34.1955">n</text>
			</g>
			<g clip-path="url(#SVGID_15_)">
				<defs>
					<rect id="SVGID_4_" x="3892.867" y="-9.711" width="227" height="227"/>
				</defs>
				<clipPath id="SVGID_16_">
					<use xlink:href="#SVGID_4_"  overflow="visible"/>
				</clipPath>
				<path clip-path="url(#SVGID_16_)" fill="#B11116" d="M3971.664,58.955l-9.245-13.88
					c-33.779,22.498-42.996,68.495-20.448,102.349l13.953-9.294C3938.79,111.89,3945.844,76.57,3971.664,58.955"/>
			</g>
		</g>
	</g>
	<g display="none">
		<defs>
			<rect id="SVGID_17_" x="14.346" y="12.446" width="960" height="960"/>
		</defs>
		<clipPath id="SVGID_18_" display="inline">
			<use xlink:href="#SVGID_17_"  overflow="visible"/>
		</clipPath>
		<polygon display="inline" clip-path="url(#SVGID_18_)" fill="#231F20" points="453.823,463.161 430.019,439.509 383.152,486.675 
			336.408,440.228 300.711,476.154 298.543,474.001 383.699,388.3 456.414,460.553 		"/>
		<path display="inline" clip-path="url(#SVGID_18_)" fill="#231F20" d="M588.061,490.765l80.502,79.991l-19.346,19.469
			l49.775,49.459l-41.703,41.969l-50.215-49.896l-38.708,38.956l-5.621-5.585l75.684-76.168l-38.956-38.709l-15.056,15.153
			l-11.682-11.608l15.494-15.593l-24.667-24.51l-17.209,17.32l-5.195-4.287l39.566-39.819L370.403,277.921l17.21-17.32
			l215.942,214.571L588.061,490.765z M533.67,583.874l50.747-18.47l-11.682-11.608l-44.349,16.248"/>
		<g display="inline" clip-path="url(#SVGID_18_)">
			
				<text transform="matrix(0.9786 -0.206 0.206 0.9786 397.0784 228.4006)" fill="#231F20" font-family="'Bauhaus'" font-size="144.6151">L</text>
		</g>
		<g display="inline" clip-path="url(#SVGID_18_)">
			
				<text transform="matrix(1 4.400000e-04 -4.400000e-04 1 446.5892 216.4774)" fill="#231F20" font-family="'Bauhaus'" font-size="144.6151">u</text>
		</g>
		<g display="inline" clip-path="url(#SVGID_18_)">
			
				<text transform="matrix(0.9779 0.2093 -0.2093 0.9779 514.5821 216.9691)" fill="#231F20" font-family="'Bauhaus'" font-size="144.6151">c</text>
		</g>
		<g display="inline" clip-path="url(#SVGID_18_)">
			
				<text transform="matrix(0.9087 0.4175 -0.4175 0.9087 564.7052 225.7745)" fill="#231F20" font-family="'Bauhaus'" font-size="144.6151">a</text>
		</g>
		<g display="inline" clip-path="url(#SVGID_18_)">
			
				<text transform="matrix(0.7906 0.6123 -0.6123 0.7906 633.1387 257.5942)" fill="#231F20" font-family="'Bauhaus'" font-size="144.615">s</text>
		</g>
		<g display="inline" clip-path="url(#SVGID_18_)">
			
				<text transform="matrix(0.6787 0.7344 -0.7344 0.6787 680.0338 294.7383)" fill="#231F20" font-family="'Bauhaus'" font-size="144.615"> </text>
		</g>
		<g display="inline" clip-path="url(#SVGID_18_)">
			
				<text transform="matrix(0.525 0.8511 -0.8511 0.525 705.8939 319.211)" fill="#231F20" font-family="'Bauhaus'" font-size="144.6151">R</text>
		</g>
		<g display="inline" clip-path="url(#SVGID_18_)">
			
				<text transform="matrix(0.2896 0.9572 -0.9572 0.2896 745.8886 382.5972)" fill="#231F20" font-family="'Bauhaus'" font-size="144.615">a</text>
		</g>
		<g display="inline" clip-path="url(#SVGID_18_)">
			
				<text transform="matrix(0.0602 0.9982 -0.9982 0.0602 767.3804 454.8013)" fill="#231F20" font-family="'Bauhaus'" font-size="144.615">s</text>
		</g>
		<g display="inline" clip-path="url(#SVGID_18_)">
			
				<text transform="matrix(-0.2127 0.9771 -0.9771 -0.2127 774.4489 512.5214)" fill="#231F20" font-family="'Bauhaus'" font-size="144.6151">m</text>
		</g>
		<g display="inline" clip-path="url(#SVGID_18_)">
			
				<text transform="matrix(-0.4766 0.8792 -0.8792 -0.4766 752.2719 608.1183)" fill="#231F20" font-family="'Bauhaus'" font-size="144.615">u</text>
		</g>
		<g display="inline" clip-path="url(#SVGID_18_)">
			
				<text transform="matrix(-0.6575 0.7535 -0.7535 -0.6575 720.0974 667.6104)" fill="#231F20" font-family="'Bauhaus'" font-size="144.6151">s</text>
		</g>
		<g display="inline" clip-path="url(#SVGID_18_)">
			
				<text transform="matrix(-0.7998 0.6003 -0.6003 -0.7998 681.7692 712.4194)" fill="#231F20" font-family="'Bauhaus'" font-size="144.6151">s</text>
		</g>
		<g display="inline" clip-path="url(#SVGID_18_)">
			
				<text transform="matrix(-0.9184 0.3958 -0.3958 -0.9184 635.9587 748.7986)" fill="#231F20" font-family="'Bauhaus'" font-size="144.615">e</text>
		</g>
		<g display="inline" clip-path="url(#SVGID_18_)">
			
				<text transform="matrix(-0.9876 0.1569 -0.1569 -0.9876 567.1025 778.593)" fill="#231F20" font-family="'Bauhaus'" font-size="144.6151">n</text>
		</g>
		<g display="inline" clip-path="url(#SVGID_18_)">
			<defs>
				<rect id="SVGID_19_" x="14.346" y="12.446" width="960" height="960"/>
			</defs>
			<clipPath id="SVGID_20_">
				<use xlink:href="#SVGID_19_"  overflow="visible"/>
			</clipPath>
			<path clip-path="url(#SVGID_20_)" fill="#B11116" d="M347.586,302.839l-39.097-58.7
				c-142.853,95.146-181.833,289.669-86.475,432.841l59.01-39.304C208.558,526.705,238.39,377.334,347.586,302.839"/>
		</g>
	</g>
</g>
</svg>
