<?xml version="1.0" encoding="utf-8"?>
<!-- Generator: Adobe Illustrator 17.0.0, SVG Export Plug-In . SVG Version: 6.00 Build 0)  -->
<!DOCTYPE svg PUBLIC "-//W3C//DTD SVG 1.1//EN" "http://www.w3.org/Graphics/SVG/1.1/DTD/svg11.dtd">
<svg version="1.1" id="Layer_2" xmlns="http://www.w3.org/2000/svg" xmlns:xlink="http://www.w3.org/1999/xlink" x="0px" y="0px"
	 width="960px" height="960px" viewBox="0 0 960 960" enable-background="new 0 0 960 960" xml:space="preserve">
<polygon id="eye_1_" fill="#231F20" points="439.477,450.715 415.673,427.063 368.806,474.23 322.062,427.783 286.365,463.708 
	284.197,461.555 369.353,375.855 442.068,448.108 "/>
<g>
	<path d="M559.569,540.164l-15.137,5.509c-30.392,11.925-30.392,11.925-30.392,11.925l5.284,13.83l50.747-18.47l-5.341-14.673
		L559.569,540.164z"/>
	<polygon points="634.872,577.78 654.217,558.31 573.715,478.319 589.209,462.726 373.267,248.156 356.057,265.475 566.379,474.461 
		526.812,514.281 532.007,518.567 549.217,501.247 573.884,525.758 559.569,540.164 564.731,538.285 570.071,552.958 
		585.128,537.806 624.084,576.514 548.399,652.682 554.02,658.267 592.729,619.311 642.944,669.207 684.646,627.238 	"/>
</g>
<path fill="none" d="M734.262,598.537C673.607,746.96,507.876,813.783,359.453,753.129
	c-145.105-59.299-216.575-223.057-155.92-371.48c59.31-145.132,226.624-215.904,371.728-156.606
	C723.684,285.698,793.836,452.758,734.262,598.537z"/>
<text transform="matrix(0.9786 -0.206 0.206 0.9786 382.6826 215.981)"><tspan x="0" y="0" fill="#231F20" font-family="'Bauhaus'" font-size="144.6151">L</tspan><tspan x="51.042" y="-1.404" fill="#231F20" font-family="'Bauhaus'" font-size="144.6151" rotate="11.912">u</tspan><tspan x="117.388" y="12.964" fill="#231F20" font-family="'Bauhaus'" font-size="144.6151" rotate="23.967">c</tspan><tspan x="164.622" y="31.938" fill="#231F20" font-family="'Bauhaus'" font-size="144.6151" rotate="36.566">a</tspan><tspan x="225.071" y="77.183" fill="#231F20" font-family="'Bauhaus'" font-size="144.6151" rotate="49.644">s</tspan><tspan x="263.262" y="123.138" fill="#231F20" font-family="'Bauhaus'" font-size="144.6151" rotate="59.146"> </tspan><tspan x="283.561" y="152.429" fill="#231F20" font-family="'Bauhaus'" font-size="144.6151" rotate="70.218">R</tspan><tspan x="309.662" y="222.723" fill="#231F20" font-family="'Bauhaus'" font-size="144.6151" rotate="85.052">a</tspan><tspan x="315.821" y="297.816" fill="#231F20" font-family="'Bauhaus'" font-size="144.6151" rotate="98.437">s</tspan><tspan x="310.887" y="355.753" fill="#231F20" font-family="'Bauhaus'" font-size="144.6151" rotate="114.165">m</tspan><tspan x="269.44" y="444.659" fill="#231F20" font-family="'Bauhaus'" font-size="144.6151" rotate="130.347">u</tspan><tspan x="225.666" y="496.354" fill="#231F20" font-family="'Bauhaus'" font-size="144.6151" rotate="142.994">s</tspan><tspan x="178.945" y="532.216" fill="#231F20" font-family="'Bauhaus'" font-size="144.6151" rotate="154.999">s</tspan><tspan x="126.67" y="558.401" fill="#231F20" font-family="'Bauhaus'" font-size="144.6151" rotate="168.574">e</tspan><tspan x="53.101" y="573.477" fill="#231F20" font-family="'Bauhaus'" font-size="144.6151" rotate="-177.14">n</tspan></text>
<path id="hair_1_" fill="#B11116" d="M333.24,290.393l-39.097-58.7c-142.853,95.146-181.834,289.669-86.475,432.841l59.01-39.303
	C194.212,514.259,224.044,364.888,333.24,290.393z"/>
</svg>
